<svg id="shopping-cart_2_" data-name="shopping-cart (2)" xmlns="http://www.w3.org/2000/svg" width="25.252" height="23.367" viewBox="0 0 25.252 23.367">
  <g id="Group_21" data-name="Group 21" transform="translate(8.368 18.925)">
    <g id="Group_20" data-name="Group 20">
      <path id="Path_2533" data-name="Path 2533" d="M171.877,402.828a2.221,2.221,0,1,0,2.221,2.221A2.223,2.223,0,0,0,171.877,402.828Zm0,3.2a.981.981,0,1,1,.981-.981A.982.982,0,0,1,171.877,406.03Z" transform="translate(-169.656 -402.828)" fill="#fff"/>
    </g>
  </g>
  <g id="Group_23" data-name="Group 23" transform="translate(16.158 18.925)">
    <g id="Group_22" data-name="Group 22">
      <path id="Path_2534" data-name="Path 2534" d="M329.822,402.828a2.221,2.221,0,1,0,2.221,2.221A2.223,2.223,0,0,0,329.822,402.828Zm0,3.2a.981.981,0,1,1,.981-.981A.982.982,0,0,1,329.822,406.03Z" transform="translate(-327.601 -402.828)" fill="#fff"/>
    </g>
  </g>
  <g id="Group_25" data-name="Group 25" transform="translate(9.42 7.232)">
    <g id="Group_24" data-name="Group 24" transform="translate(0 0)">
      <path id="Path_2535" data-name="Path 2535" d="M200.5,165.755h-8.885a.62.62,0,1,0,0,1.24H200.5a.62.62,0,1,0,0-1.24Z" transform="translate(-190.996 -165.755)" fill="#fff"/>
    </g>
  </g>
  <g id="Group_27" data-name="Group 27" transform="translate(9.904 10.452)">
    <g id="Group_26" data-name="Group 26">
      <path id="Path_2536" data-name="Path 2536" d="M209.34,231.035h-7.918a.62.62,0,0,0,0,1.24h7.918a.62.62,0,0,0,0-1.24Z" transform="translate(-200.802 -231.035)" fill="#fff"/>
    </g>
  </g>
  <g id="Group_29" data-name="Group 29" transform="translate(0 0)">
    <g id="Group_28" data-name="Group 28" transform="translate(0 0)">
      <path id="Path_2537" data-name="Path 2537" d="M24.973,23.584a1.235,1.235,0,0,0-.961-.457H4.7l-.39-1.893a1.242,1.242,0,0,0-.721-.887L.867,19.165A.62.62,0,0,0,.373,20.3l2.721,1.181,3,14.563a1.245,1.245,0,0,0,1.215.99H22.163a.62.62,0,1,0,0-1.24H7.309l-.365-1.771H22.277a1.245,1.245,0,0,0,1.214-.99l1.734-8.418A1.235,1.235,0,0,0,24.973,23.584Zm-2.7,9.2H6.688L4.954,24.367H24.012Z" transform="translate(0 -19.114)" fill="#fff"/>
    </g>
  </g>
</svg>
