<svg id="checked" xmlns="http://www.w3.org/2000/svg" width="68.891" height="68.891" viewBox="0 0 68.891 68.891">
  <circle id="Ellipse_3" data-name="Ellipse 3" cx="34.446" cy="34.446" r="34.446" fill="#582f00"/>
  <path id="Path_2530" data-name="Path 2530" d="M188.8,157.49l3.314,3.314a6.441,6.441,0,0,0,4.778-6.222V154.4l-2.6-2.4Z" transform="translate(-128.001 -92.137)" fill="none"/>
  <g id="Group_14" data-name="Group 14" transform="translate(17.082 21.511)">
    <path id="Path_2531" data-name="Path 2531" d="M102.937,210.843a3.039,3.039,0,0,1,0,4.221l-2.354,2.354a3.039,3.039,0,0,1-4.221,0L86.052,207.028a3.039,3.039,0,0,1,0-4.221l2.354-2.354a3.039,3.039,0,0,1,4.221,0Z" transform="translate(-85.2 -192.051)" fill="#fff"/>
    <path id="Path_2532" data-name="Path 2532" d="M183.111,126.052a3.039,3.039,0,0,1,4.221,0l2.354,2.354a3.039,3.039,0,0,1,0,4.221l-17.859,17.778a3.039,3.039,0,0,1-4.221,0l-2.354-2.354a3.039,3.039,0,0,1,0-4.221Z" transform="translate(-156.364 -125.2)" fill="#fff"/>
  </g>
</svg>
