<svg xmlns="http://www.w3.org/2000/svg" width="16.982" height="17" viewBox="0 0 16.982 17">
  <g id="email" transform="translate(-0.261 0)">
    <path id="Path_2872" data-name="Path 2872" d="M17.243,185.386a.72.72,0,0,1-.212.531.767.767,0,0,1-.5.177H.969a.846.846,0,0,1-.5-.177.72.72,0,0,1-.212-.531V175.02H17.243v10.366Z" transform="translate(0 -169.094)" fill="#ffd15c"/>
    <path id="Path_2873" data-name="Path 2873" d="M23.088,293.936a.767.767,0,0,1-.5.177H7.025a.846.846,0,0,1-.5-.177l8.279-7.111Z" transform="translate(-6.057 -277.113)" fill="#f8b64c"/>
    <path id="Path_2874" data-name="Path 2874" d="M17.243,5.926,14.838,7.66,9.212,11.693a.8.8,0,0,1-.955,0L2.667,7.66.261,5.926,2.667,4.193,7.9.442,8.292.159a.8.8,0,0,1,.955,0l.389.283,2.512,1.8,1.238.884,1.451,1.061Z" transform="translate(0 0)" fill="#40596b"/>
    <path id="Path_2875" data-name="Path 2875" d="M83.485,15.255v5.024l-5.625,4.033a.8.8,0,0,1-.955,0l-5.59-4.033v-6.51a.71.71,0,0,1,.708-.708h9.234Z" transform="translate(-68.647 -12.619)" fill="#f2f2f2"/>
    <path id="Path_2876" data-name="Path 2876" d="M365.974,14.689a.559.559,0,0,0,.566.566h1.627l-2.194-2.194v1.627Z" transform="translate(-353.33 -12.619)" fill="#cdd6e0"/>
    <path id="Path_2877" data-name="Path 2877" d="M177.41,106.992h.566a1.869,1.869,0,0,1-.849.884,3.12,3.12,0,0,1-1.592.354,3.49,3.49,0,0,1-1.557-.318,2.087,2.087,0,0,1-.991-.92,2.755,2.755,0,0,1-.318-1.309,2.936,2.936,0,0,1,.354-1.451,2.234,2.234,0,0,1,.991-.991,3.236,3.236,0,0,1,1.451-.318,2.776,2.776,0,0,1,1.238.283,1.737,1.737,0,0,1,.814.778,2.3,2.3,0,0,1,.283,1.1,2.12,2.12,0,0,1-.425,1.274,1.591,1.591,0,0,1-1.38.708.888.888,0,0,1-.354-.071.358.358,0,0,1-.142-.248,1.018,1.018,0,0,1-.743.318.914.914,0,0,1-.743-.318,1.148,1.148,0,0,1-.318-.849,2.162,2.162,0,0,1,.354-1.2,1.316,1.316,0,0,1,1.132-.637.876.876,0,0,1,.743.389l.071-.318h.743l-.425,1.981a.933.933,0,0,0-.035.248.13.13,0,0,0,.035.106c.035.035.035.035.071.035a.8.8,0,0,0,.354-.177,1.477,1.477,0,0,0,.46-.566,1.9,1.9,0,0,0,.177-.743,1.471,1.471,0,0,0-.5-1.132,1.862,1.862,0,0,0-1.38-.46,2.431,2.431,0,0,0-1.274.318,2,2,0,0,0-.778.849,2.563,2.563,0,0,0-.248,1.168,2.162,2.162,0,0,0,.283,1.061,1.755,1.755,0,0,0,.814.708,3.173,3.173,0,0,0,1.2.212,3.621,3.621,0,0,0,1.132-.177A2.11,2.11,0,0,0,177.41,106.992Zm-3.007-1.132a.791.791,0,0,0,.142.531.491.491,0,0,0,.354.177.666.666,0,0,0,.283-.071.938.938,0,0,0,.212-.177,1.292,1.292,0,0,0,.248-.5,1.962,1.962,0,0,0,.106-.6.749.749,0,0,0-.142-.5.491.491,0,0,0-.354-.177.653.653,0,0,0-.425.177.972.972,0,0,0-.318.531A1.964,1.964,0,0,0,174.4,105.859Z" transform="translate(-166.57 -99.438)" fill="#ff7058"/>
  </g>
</svg>
