<svg xmlns="http://www.w3.org/2000/svg" width="12.436" height="17.17" viewBox="0 0 12.436 17.17">
  <g id="placeholder_2_" data-name="placeholder (2)" transform="translate(-70.573)">
    <path id="Path_2868" data-name="Path 2868" d="M76.375,16.984c-.237-.264-5.8-6.511-5.8-10.766a6.218,6.218,0,0,1,12.436,0c0,4.255-5.565,10.5-5.8,10.766A.56.56,0,0,1,76.375,16.984Z" transform="translate(0 0)" fill="#ff5752"/>
    <path id="Path_2869" data-name="Path 2869" d="M262.219,6.218A6.225,6.225,0,0,0,256,0V17.17a.557.557,0,0,0,.417-.186C256.654,16.72,262.219,10.473,262.219,6.218Z" transform="translate(-179.21 0)" fill="#db3a3c"/>
    <path id="Path_2870" data-name="Path 2870" d="M165.838,98.39a3.129,3.129,0,1,1,3.128-3.129A3.132,3.132,0,0,1,165.838,98.39Z" transform="translate(-89.047 -89.043)" fill="#efefef"/>
    <path id="Path_2871" data-name="Path 2871" d="M256,92.134v6.257a3.129,3.129,0,0,0,0-6.257Z" transform="translate(-179.21 -89.044)" fill="#c5d8df"/>
  </g>
</svg>
