<svg xmlns="http://www.w3.org/2000/svg" width="27.87" height="19" viewBox="0 0 27.87 19">
  <path id="delivery-truck" d="M22.785,632.4a2.573,2.573,0,0,0-1.816.749,2.521,2.521,0,0,0,0,3.609,2.583,2.583,0,0,0,1.816.749,2.554,2.554,0,0,0,0-5.107Zm0,3.973a1.419,1.419,0,1,1,0-2.838,1.419,1.419,0,0,1,0,2.838Zm.658-12.479a.551.551,0,0,0-.38-.148H20.152a.569.569,0,0,0-.568.567v4.654a.569.569,0,0,0,.568.568h4.619a.569.569,0,0,0,.568-.568v-3.116a.568.568,0,0,0-.187-.42Zm.76,4.506H20.72v-3.524h2.122L24.2,626.1Zm-15.277,4a2.573,2.573,0,0,0-1.816.749,2.521,2.521,0,0,0,0,3.609,2.583,2.583,0,0,0,1.816.749,2.554,2.554,0,0,0,0-5.107Zm0,3.973a1.419,1.419,0,1,1,0-2.838,1.419,1.419,0,0,1,0,2.838ZM5.142,633.1H4v-1.51a.568.568,0,0,0-1.135,0v2.077a.569.569,0,0,0,.568.568H5.142a.568.568,0,0,0,0-1.135Zm2.877-3.093a.569.569,0,0,0-.568-.568H.568a.568.568,0,0,0,0,1.135H7.451A.566.566,0,0,0,8.019,630.008Zm-6.3-2.049L8.6,628a.573.573,0,0,0,.573-.562.562.562,0,0,0-.562-.573l-6.884-.04H1.725a.567.567,0,0,0-.006,1.135Zm1.158-2.576H9.761a.567.567,0,1,0,0-1.135H2.877a.567.567,0,1,0,0,1.135Zm24.783-.766h0L23.6,621.251a.559.559,0,0,0-.363-.13H18.455v-2.043a.569.569,0,0,0-.568-.568H3.433a.569.569,0,0,0-.568.568v4.154a.568.568,0,1,0,1.135,0v-3.587H17.326V633.1H12.672a.568.568,0,0,0,0,1.135H19.6a.568.568,0,0,0,0-1.135H18.461V622.256h4.574l3.7,3.065-.04,7.769h-.59a.567.567,0,1,0,0,1.135h1.152a.564.564,0,0,0,.568-.562l.045-8.6A.6.6,0,0,0,27.66,624.616Z" transform="translate(0 -618.51)" fill="#fff"/>
</svg>
