<svg id="edit" xmlns="http://www.w3.org/2000/svg" width="7.947" height="7.948" viewBox="0 0 7.947 7.948">
  <path id="Path_2538" data-name="Path 2538" d="M7.335,43.386a.2.2,0,0,0-.2.2v1.766a.6.6,0,0,1-.594.6H.99a.6.6,0,0,1-.594-.6V40.167a.6.6,0,0,1,.594-.6H2.747a.2.2,0,0,0,0-.4H.99a.993.993,0,0,0-.99.995v5.184a.993.993,0,0,0,.99.995H6.543a.993.993,0,0,0,.99-.995V43.585A.2.2,0,0,0,7.335,43.386Zm0,0" transform="translate(0 -38.398)" fill="#fff"/>
  <path id="Path_2539" data-name="Path 2539" d="M113.5.523a.887.887,0,0,0-1.26,0l-3.531,3.549a.2.2,0,0,0-.051.088L108.2,5.845a.2.2,0,0,0,.051.194.2.2,0,0,0,.193.051l1.676-.467a.2.2,0,0,0,.087-.051l3.531-3.549a.9.9,0,0,0,0-1.266ZM109.144,4.2l2.89-2.9.932.937-2.89,2.9Zm-.186.375.745.749-1.03.287Zm4.5-2.836-.21.211-.932-.937.21-.211a.493.493,0,0,1,.7,0l.232.233A.5.5,0,0,1,113.456,1.741Zm0,0" transform="translate(-106.049 -0.261)" fill="#fff"/>
</svg>
