<svg id="Add_To_Cart_Button" data-name="Add To Cart Button" xmlns="http://www.w3.org/2000/svg" width="13.947" height="13.948" viewBox="0 0 13.947 13.948">
  <g id="edit">
    <path id="Path_2538" data-name="Path 2538" d="M12.873,46.567a.348.348,0,0,0-.347.349v3.1a1.046,1.046,0,0,1-1.042,1.047H1.737A1.046,1.046,0,0,1,.695,50.016v-9.1A1.046,1.046,0,0,1,1.737,39.87H4.821a.349.349,0,0,0,0-.7H1.737A1.743,1.743,0,0,0,0,40.918v9.1a1.743,1.743,0,0,0,1.737,1.746h9.746a1.743,1.743,0,0,0,1.737-1.746v-3.1A.348.348,0,0,0,12.873,46.567Zm0,0" transform="translate(0 -37.814)" fill="#582f00"/>
    <path id="Path_2539" data-name="Path 2539" d="M117.514.721a1.557,1.557,0,0,0-2.211,0l-6.2,6.229a.349.349,0,0,0-.089.154L108.2,10.06a.35.35,0,0,0,.089.34.346.346,0,0,0,.338.09l2.942-.819a.347.347,0,0,0,.153-.09l6.2-6.229a1.578,1.578,0,0,0,0-2.222Zm-7.651,6.456,5.072-5.1,1.636,1.644L111.5,8.82Zm-.327.659,1.307,1.314-1.808.5Zm7.894-4.977-.368.37-1.636-1.644.369-.37a.865.865,0,0,1,1.228,0l.408.41A.877.877,0,0,1,117.431,2.859Zm0,0" transform="translate(-104.432 -0.261)" fill="#582f00"/>
  </g>
</svg>
