<svg xmlns="http://www.w3.org/2000/svg" width="24.688" height="24.2" viewBox="0 0 24.688 24.2">
  <path id="Home" d="M97.9,87.4,86.4,77.32a.846.846,0,0,0-1.115,0L73.788,87.4A.846.846,0,0,0,74.9,88.67l.89-.78v12.575a.845.845,0,0,0,.845.845H95.049a.845.845,0,0,0,.845-.845V87.889l.89.78A.846.846,0,0,0,97.9,87.4ZM83.891,99.619V92.654h3.9v6.965h-3.9ZM94.2,86.414V99.619H89.487v-7.81a.845.845,0,0,0-.845-.845h-5.6a.845.845,0,0,0-.845.845v7.81H77.484V86.414s0,0,0-.006l8.36-7.328,8.36,7.328S94.2,86.412,94.2,86.414Z" transform="translate(-73.499 -77.11)"/>
</svg>
