<svg xmlns="http://www.w3.org/2000/svg" width="15.688" height="15.378" viewBox="0 0 15.688 15.378">
  <path id="Home" d="M89,83.648l-7.307-6.4a.537.537,0,0,0-.708,0l-7.307,6.4a.537.537,0,0,0,.708.808l.566-.5v7.991a.537.537,0,0,0,.537.537h11.7a.537.537,0,0,0,.537-.537V83.96l.566.5A.537.537,0,0,0,89,83.648Zm-8.9,7.766V86.988h2.481v4.426H80.1Zm6.553-8.391v8.391h-3V86.45a.537.537,0,0,0-.537-.537H79.566a.537.537,0,0,0-.537.537v4.963h-3V83.022s0,0,0,0l5.313-4.656,5.313,4.656S86.656,83.021,86.656,83.022Z" transform="translate(-73.499 -77.11)"/>
</svg>
