<svg xmlns="http://www.w3.org/2000/svg" width="23.325" height="13.995" viewBox="0 0 23.325 13.995">
  <g id="menu_2_" data-name="menu (2)" transform="translate(0 -95.243)">
    <g id="Menu_1_" transform="translate(0 95.243)">
      <path id="Path_2854" data-name="Path 2854" d="M.729,97.7H22.6a.729.729,0,0,0,0-1.458H.729a.729.729,0,0,0,0,1.458Z" transform="translate(0 -96.243)" fill="#fff"/>
      <path id="Path_2855" data-name="Path 2855" d="M22.6,180.455H.729a.729.729,0,1,0,0,1.458H22.6a.729.729,0,1,0,0-1.458Z" transform="translate(0 -174.186)" fill="#fff"/>
      <path id="Path_2856" data-name="Path 2856" d="M135.61,264.667H121.032a.729.729,0,0,0,0,1.458H135.61a.729.729,0,0,0,0-1.458Z" transform="translate(-113.014 -252.13)" fill="#fff"/>
    </g>
  </g>
</svg>
