<svg xmlns="http://www.w3.org/2000/svg" width="133.328" height="125.304" viewBox="0 0 133.328 125.304">
  <g id="Group_525" data-name="Group 525" transform="translate(-188.734 -119.683)">
    <circle id="Ellipse_168" data-name="Ellipse 168" cx="46.567" cy="46.567" r="46.567" transform="matrix(0.891, -0.455, 0.455, 0.891, 188.734, 162.045)" fill="#f9aba0"/>
    <g id="Group_518" data-name="Group 518">
      <g id="Group_517" data-name="Group 517">
        <path id="Path_2822" data-name="Path 2822" d="M264.181,160.585l-10.935-10.178a2.733,2.733,0,0,0-3.723,0l-10.884,10.178Z" fill="#ba5a56"/>
      </g>
      <path id="Path_2823" data-name="Path 2823" d="M274.385,160.585h-46v19.66l15,11.429h16l15-11.429Z" fill="#efeabf"/>
      <path id="Path_2824" data-name="Path 2824" d="M263.386,169.8h-24a1,1,0,0,1,0-2h24a1,1,0,0,1,0,2Z" fill="#b6b094"/>
      <path id="Path_2825" data-name="Path 2825" d="M263.386,175.3h-24a1,1,0,0,1,0-2h24a1,1,0,0,1,0,2Z" fill="#b6b094"/>
      <path id="Path_2826" data-name="Path 2826" d="M263.386,180.8h-24a1,1,0,0,1,0-2h24a1,1,0,0,1,0,2Z" fill="#b6b094"/>
      <path id="Path_2827" data-name="Path 2827" d="M263.386,186.3h-24a1,1,0,0,1,0-2h24a1,1,0,0,1,0,2Z" fill="#b6b094"/>
      <path id="Path_2828" data-name="Path 2828" d="M228.492,180.327l-.107-.082V170.087l-6,5.586h0Z" fill="#ba5a56"/>
      <path id="Path_2829" data-name="Path 2829" d="M274.385,170.087v10.158l-.208.158h0l6.207-4.729h0Z" fill="#ba5a56"/>
      <path id="Path_2830" data-name="Path 2830" d="M222.385,207.674h58l-21-16h-16Z" fill="#ff7058"/>
      <path id="Path_2831" data-name="Path 2831" d="M222.385,207.674v-32l21,16Z" fill="#e55e4c"/>
      <path id="Path_2832" data-name="Path 2832" d="M280.385,207.674v-32l-21,16Z" fill="#e55e4c"/>
    </g>
    <g id="Group_520" data-name="Group 520">
      <g id="Group_519" data-name="Group 519">
        <path id="Path_2833" data-name="Path 2833" d="M307.412,142.86c.711-.546,14.649-11.588,14.649-11.588l-6.122,17.547Z" fill="#f4bbb5"/>
        <path id="Path_2834" data-name="Path 2834" d="M294.02,139.362s7.379,1.8,7.543,1.7,20.5-9.785,20.5-9.785Z" fill="#f4bbb5"/>
        <path id="Path_2835" data-name="Path 2835" d="M301.563,141.057l1.8,8.035,4.045-6.232,14.65-11.588Z" fill="#f98878"/>
        <path id="Path_2836" data-name="Path 2836" d="M303.367,149.092l5.437-5.259-1.392-.973Z" fill="#ba5a56"/>
      </g>
      <path id="Path_2837" data-name="Path 2837" d="M275.129,156.949s3.291-3.441,7.629.75-.045,13.781,7.251,13.629c5.165-.108,5.688-10.743,2.692-10.7-3.062.045-1.165,5.29,1.959,5.31,9.8.062,5.632-9.737,5.632-9.737s-.9-4.944,1.1-6.361" fill="none" stroke="#506b7c" stroke-linecap="round" stroke-linejoin="round" stroke-width="0.898" stroke-dasharray="0 1.795"/>
    </g>
    <g id="Group_521" data-name="Group 521">
      <line id="Line_15" data-name="Line 15" y2="4.833" transform="translate(239.731 126.747)" fill="none" stroke="#ff7058" stroke-linecap="round" stroke-linejoin="round" stroke-width="1.566"/>
      <line id="Line_16" data-name="Line 16" x1="4.833" transform="translate(237.315 129.164)" fill="none" stroke="#ff7058" stroke-linecap="round" stroke-linejoin="round" stroke-width="1.566"/>
    </g>
    <g id="Group_522" data-name="Group 522">
      <line id="Line_17" data-name="Line 17" y2="3.628" transform="translate(211.189 146.784)" fill="none" stroke="#f9aba0" stroke-linecap="round" stroke-linejoin="round" stroke-width="1.175"/>
      <line id="Line_18" data-name="Line 18" x1="3.628" transform="translate(209.375 148.598)" fill="none" stroke="#f9aba0" stroke-linecap="round" stroke-linejoin="round" stroke-width="1.175"/>
    </g>
    <g id="Group_523" data-name="Group 523">
      <line id="Line_19" data-name="Line 19" y2="3.628" transform="translate(281.169 139.247)" fill="none" stroke="#ff7058" stroke-linecap="round" stroke-linejoin="round" stroke-width="1.175"/>
      <line id="Line_20" data-name="Line 20" x1="3.628" transform="translate(279.355 141.061)" fill="none" stroke="#ff7058" stroke-linecap="round" stroke-linejoin="round" stroke-width="1.175"/>
    </g>
    <g id="Group_524" data-name="Group 524">
      <line id="Line_21" data-name="Line 21" y2="4.146" transform="translate(277.281 133.508)" fill="none" stroke="#efeabf" stroke-linecap="round" stroke-linejoin="round" stroke-width="1.343"/>
      <line id="Line_22" data-name="Line 22" x1="4.146" transform="translate(275.208 135.581)" fill="none" stroke="#efeabf" stroke-linecap="round" stroke-linejoin="round" stroke-width="1.343"/>
    </g>
    <circle id="Ellipse_169" data-name="Ellipse 169" cx="2.22" cy="2.22" r="2.22" transform="translate(206.75 135.581)" fill="#e55e4c"/>
    <path id="Path_2838" data-name="Path 2838" d="M268.893,126.91a2.254,2.254,0,1,1-2.254-2.253A2.254,2.254,0,0,1,268.893,126.91Z" fill="#f9aba0"/>
    <circle id="Ellipse_170" data-name="Ellipse 170" cx="1.551" cy="1.551" r="1.551" transform="translate(225.209 131.759)" fill="#efeabf"/>
  </g>
</svg>
