<svg xmlns="http://www.w3.org/2000/svg" width="11.992" height="15.504" viewBox="0 0 11.992 15.504">
  <g id="export" transform="translate(-71.563 -5.959)">
    <path id="Path_2839" data-name="Path 2839" d="M80.383,172.228h-1.5v.9h1v8.062H69.89v-8.062h1v-.9h-1.5a.476.476,0,0,0-.5.448v8.958a.476.476,0,0,0,.5.448H80.383a.476.476,0,0,0,.5-.448v-8.958A.476.476,0,0,0,80.383,172.228Z" transform="translate(2.672 -160.618)" fill="#582f00"/>
    <path id="Path_2840" data-name="Path 2840" d="M163.417,2.258V9.022h1.18V2.258l2.532,2.532.834-.834L164.007,0l-3.956,3.956.834.834Z" transform="translate(-86.448 5.959)" fill="#582f00"/>
  </g>
</svg>
