<svg xmlns="http://www.w3.org/2000/svg" width="13.027" height="10.236" viewBox="0 0 13.027 10.236">
  <g id="envelope_2_" data-name="envelope (2)" transform="translate(0 -54.82)">
    <g id="Group_10" data-name="Group 10" transform="translate(0 54.82)">
      <path id="Path_3" data-name="Path 3" d="M1.25,57.975q.247.174,1.49,1.036t1.9,1.327l.309.222q.236.171.393.276t.378.236a2.193,2.193,0,0,0,.418.2,1.152,1.152,0,0,0,.363.065h.015a1.153,1.153,0,0,0,.364-.065,2.2,2.2,0,0,0,.418-.2q.222-.131.378-.236t.393-.276l.309-.222,3.4-2.363a3.453,3.453,0,0,0,.887-.894,1.92,1.92,0,0,0,.356-1.1,1.173,1.173,0,0,0-1.163-1.163H1.163A1.038,1.038,0,0,0,.3,55.2a1.467,1.467,0,0,0-.3.945,1.7,1.7,0,0,0,.4.992A3.608,3.608,0,0,0,1.25,57.975Z" transform="translate(0 -54.82)"/>
      <path id="Path_4" data-name="Path 4" d="M12.3,185.069q-2.384,1.614-3.62,2.508-.414.305-.672.476a4.15,4.15,0,0,1-.687.349,2.092,2.092,0,0,1-.8.178H6.506a2.093,2.093,0,0,1-.8-.178,4.152,4.152,0,0,1-.687-.349q-.258-.171-.672-.476-.981-.72-3.613-2.508A3.851,3.851,0,0,1,0,184.437v5.772a1.12,1.12,0,0,0,.342.822,1.12,1.12,0,0,0,.822.342h10.7a1.167,1.167,0,0,0,1.163-1.163v-5.772A4.009,4.009,0,0,1,12.3,185.069Z" transform="translate(0 -181.137)"/>
    </g>
  </g>
</svg>
