<svg xmlns="http://www.w3.org/2000/svg" width="12.027" height="12" viewBox="0 0 12.027 12">
  <g id="call-answer" transform="translate(0 -0.394)">
    <g id="Group_9" data-name="Group 9" transform="translate(0 0.394)">
      <g id="Group_8" data-name="Group 8" transform="translate(0 0)">
        <path id="Path_2" data-name="Path 2" d="M11.757,9.885,9.9,8.027a.968.968,0,0,0-1.365.026L7.6,8.989l-.185-.1A9.312,9.312,0,0,1,5.163,7.258,9.364,9.364,0,0,1,3.532,5c-.035-.063-.068-.123-.1-.18L4.059,4.2l.309-.309a.968.968,0,0,0,.025-1.366L2.536.663A.967.967,0,0,0,1.17.689l-.523.526.014.014A3.027,3.027,0,0,0,.23,1.99a3.155,3.155,0,0,0-.192.772C-.208,4.8.721,6.654,3.243,9.175c3.486,3.485,6.294,3.222,6.416,3.209a3.138,3.138,0,0,0,.774-.194,3.017,3.017,0,0,0,.758-.429l.011.01.53-.519A.969.969,0,0,0,11.757,9.885Z" transform="translate(0 -0.394)"/>
      </g>
    </g>
  </g>
</svg>
