<svg xmlns="http://www.w3.org/2000/svg" width="16" height="15.685" viewBox="0 0 16 15.685">
  <g id="attach" transform="translate(0 -5.044)">
    <g id="Group_18" data-name="Group 18" transform="translate(0 5.044)">
      <g id="Group_17" data-name="Group 17" transform="translate(0 0)">
        <path id="Path_7" data-name="Path 7" d="M329.953,131.063a1.611,1.611,0,1,0,1.611,1.611A1.612,1.612,0,0,0,329.953,131.063Zm0,2.6a.986.986,0,1,1,.986-.986A.987.987,0,0,1,329.953,133.659Z" transform="translate(-318.081 -127.125)" fill="#7d7d7d"/>
        <path id="Path_8" data-name="Path 8" d="M361.6,445.2a.307.307,0,0,0-.029-.054.3.3,0,0,0-.086-.086.312.312,0,0,0-.054-.029.3.3,0,0,0-.058-.018.308.308,0,0,0-.122,0,.3.3,0,0,0-.058.018.31.31,0,0,0-.054.029.3.3,0,0,0-.086.086.307.307,0,0,0-.029.054.294.294,0,0,0-.018.058.3.3,0,0,0,0,.122.293.293,0,0,0,.018.058.307.307,0,0,0,.029.054.3.3,0,0,0,.039.047l.023.021.025.018a.311.311,0,0,0,.054.029.3.3,0,0,0,.058.018.3.3,0,0,0,.122,0,.3.3,0,0,0,.058-.018.312.312,0,0,0,.054-.029l.025-.018.023-.021a.3.3,0,0,0,.039-.047.307.307,0,0,0,.029-.054.318.318,0,0,0,.018-.058.317.317,0,0,0,0-.122A.318.318,0,0,0,361.6,445.2Z" transform="translate(-349.719 -431.257)" fill="#7d7d7d"/>
        <path id="Path_9" data-name="Path 9" d="M204.221,49.469a.332.332,0,0,0-.029-.054.314.314,0,0,0-.039-.048.3.3,0,0,0-.048-.039.308.308,0,0,0-.054-.029.315.315,0,0,0-.058-.018.308.308,0,0,0-.122,0,.326.326,0,0,0-.059.018.317.317,0,0,0-.054.029.3.3,0,0,0-.047.039.334.334,0,0,0-.039.048.331.331,0,0,0-.028.054.294.294,0,0,0-.018.058.3.3,0,0,0,0,.122.294.294,0,0,0,.018.058.331.331,0,0,0,.028.054.334.334,0,0,0,.039.048.3.3,0,0,0,.047.039.317.317,0,0,0,.054.029.326.326,0,0,0,.059.018.3.3,0,0,0,.122,0,.316.316,0,0,0,.058-.018.308.308,0,0,0,.054-.029.3.3,0,0,0,.048-.039.314.314,0,0,0,.039-.048.332.332,0,0,0,.029-.054.292.292,0,0,0,.018-.058.3.3,0,0,0,0-.122A.292.292,0,0,0,204.221,49.469Z" transform="translate(-197.257 -47.894)" fill="#7d7d7d"/>
        <path id="Path_10" data-name="Path 10" d="M14.254,6.428a1.8,1.8,0,0,0-1.749-1.384H2.7A2.7,2.7,0,0,0,0,7.745v9.8a1.8,1.8,0,0,0,1.746,1.8,1.8,1.8,0,0,0,1.749,1.384H14.2a1.8,1.8,0,0,0,1.8-1.8V8.223A1.8,1.8,0,0,0,14.254,6.428Zm1.121,12.5A1.174,1.174,0,0,1,14.2,20.1H3.495a1.173,1.173,0,0,1-1.172-1.172V17.274l3.585-6.079a.589.589,0,0,1,1.025.018l1.544,2.834,2.244,4.12a.313.313,0,0,0,.549-.3l-.728-1.337a1.289,1.289,0,0,0,.885-.3l1.405-1.166a.591.591,0,0,1,.774.019l.073.067.625.573,1.072.983Zm0-3.068L14.3,14.88l-.625-.476a1.219,1.219,0,0,0-1.246.183l-1.405,1.166a.669.669,0,0,1-1.015-.2l-.986-1.81-.551-1.011h0l-.993-1.823a1.214,1.214,0,0,0-2.112-.036L2.322,16.043V8.223A1.174,1.174,0,0,1,3.495,7.051H5.426a.313.313,0,1,0,0-.625H3.495a1.8,1.8,0,0,0-1.8,1.8V18.717A1.174,1.174,0,0,1,.625,17.549v-9.8A2.078,2.078,0,0,1,2.7,5.669h9.8a1.174,1.174,0,0,1,1.1.757H7.926a.313.313,0,0,0,0,.625h5.752l.625,0a1.173,1.173,0,0,1,1.072,1.168Z" transform="translate(0 -5.044)" fill="#7d7d7d"/>
      </g>
    </g>
  </g>
</svg>
