<svg xmlns="http://www.w3.org/2000/svg" width="40.63" height="40.63" viewBox="0 0 40.63 40.63">
  <g id="Group_13" data-name="Group 13" transform="translate(-35.778 -234.52)">
    <circle id="Ellipse_33" data-name="Ellipse 33" cx="20.315" cy="20.315" r="20.315" transform="translate(35.778 234.52)" fill="#3f3d56"/>
    <path id="Path_129" data-name="Path 129" d="M567.549,522.271l-6.083,6.188a.11.11,0,0,0,0,.158l4.268,4.538a.734.734,0,1,1-1.039,1.039l-4.246-4.522a.116.116,0,0,0-.163,0l-1.034,1.045A4.547,4.547,0,0,1,556,532.085a4.646,4.646,0,0,1-3.309-1.406l-.994-1.016a.116.116,0,0,0-.163,0l-4.235,4.512a.734.734,0,1,1-1.038-1.039l4.252-4.528a.122.122,0,0,0,0-.159l-6.083-6.188a.112.112,0,0,0-.191.079v12.383a1.813,1.813,0,0,0,1.807,1.807h19.89a1.813,1.813,0,0,0,1.807-1.807V522.35a.112.112,0,0,0-.2-.079Z" transform="translate(-499.902 -273.574)" fill="#6c63ff"/>
    <path id="Path_130" data-name="Path 130" d="M558.712,522.968a3.077,3.077,0,0,0,2.219-.915l8.859-9.017a1.768,1.768,0,0,0-1.118-.406h-19.9a1.755,1.755,0,0,0-1.118.406l8.861,9.017A3.065,3.065,0,0,0,558.712,522.968Z" transform="translate(-502.619 -265.926)" fill="#6c63ff"/>
  </g>
</svg>
