<svg xmlns="http://www.w3.org/2000/svg" width="40.63" height="40.63" viewBox="0 0 40.63 40.63">
  <g id="Group_15" data-name="Group 15" transform="translate(-89.725 -264.986)">
    <circle id="Ellipse_34" data-name="Ellipse 34" cx="20.315" cy="20.315" r="20.315" transform="translate(89.725 264.986)" fill="#3f3d56"/>
    <path id="Path_131" data-name="Path 131" d="M804.15,369.747a15.4,15.4,0,0,0-3.252-2.173c-.974-.467-1.331-.459-2.02.039-.573.406-.945.8-1.6.654a9.652,9.652,0,0,1-3.225-2.386,9.371,9.371,0,0,1-2.382-3.223c-.14-.669.246-1.032.656-1.606.5-.689.51-1.047.039-2.02a15.587,15.587,0,0,0-2.175-3.252c-.713-.711-.868-.555-1.258-.406a7.28,7.28,0,0,0-1.152.61,3.477,3.477,0,0,0-1.382,1.461c-.278.593-.593,1.695,1.026,4.579a25.544,25.544,0,0,0,4.491,5.989h0a25.584,25.584,0,0,0,6.01,4.5c2.882,1.626,3.985,1.3,4.579,1.026a3.411,3.411,0,0,0,1.459-1.382,7.178,7.178,0,0,0,.61-1.152C804.7,370.615,804.863,370.456,804.15,369.747Z" transform="translate(-685.389 -79.207)" fill="#6c63ff"/>
  </g>
</svg>
