<svg xmlns="http://www.w3.org/2000/svg" width="7.808" height="5.131" viewBox="0 0 7.808 5.131">
  <g id="Group_12" data-name="Group 12" transform="translate(-205.919 -222.865)">
    <g id="check-mark" transform="translate(205.918 202.299)">
      <path id="Path_2" data-name="Path 2" d="M5.555,20.605c-.262-.141-.554.131-.726.292-.393.383-.726.827-1.1,1.23-.413.444-.8.887-1.22,1.321a3.637,3.637,0,0,0-.665.806A13.233,13.233,0,0,0,.767,23.206c-.292-.222-.776-.383-.766.151a3.417,3.417,0,0,0,1.089,1.915,1.151,1.151,0,0,0,.736.423c.353.02.716-.4.927-.635.373-.4.675-.857,1.018-1.27.444-.544.9-1.079,1.331-1.633C5.374,21.815,6.231,20.968,5.555,20.605ZM.444,23.317a.076.076,0,0,0-.04.01.491.491,0,0,1-.111-.04h0Q.338,23.257.444,23.317Z" transform="translate(0 0)" fill="#fff"/>
    </g>
    <g id="check-mark-2" data-name="check-mark" transform="translate(207.918 202.299)">
      <path id="Path_2-2" data-name="Path 2" d="M5.555,20.605c-.262-.141-.554.131-.726.292-.393.383-.726.827-1.1,1.23-.413.444-.8.887-1.22,1.321a3.637,3.637,0,0,0-.665.806A13.233,13.233,0,0,0,.767,23.206c-.292-.222-.776-.383-.766.151a3.417,3.417,0,0,0,1.089,1.915,1.151,1.151,0,0,0,.736.423c.353.02.716-.4.927-.635.373-.4.675-.857,1.018-1.27.444-.544.9-1.079,1.331-1.633C5.374,21.815,6.231,20.968,5.555,20.605ZM.444,23.317a.076.076,0,0,0-.04.01.491.491,0,0,1-.111-.04h0Q.338,23.257.444,23.317Z" transform="translate(0 0)" fill="#fff"/>
    </g>
  </g>
</svg>
