<svg xmlns="http://www.w3.org/2000/svg" width="16.601" height="16.601" viewBox="0 0 16.601 16.601">
  <g id="Group_451" data-name="Group 451" transform="translate(-198.399 -586)">
    <path id="Path_40" data-name="Path 40" d="M14.4,55.2a.671.671,0,0,0-.671.671v4.074a.856.856,0,0,1-.855.855H2.2a.856.856,0,0,1-.855-.855V49.261a.856.856,0,0,1,.855-.855H6.271a.671.671,0,1,0,0-1.341H2.2a2.2,2.2,0,0,0-2.2,2.2V59.943a2.2,2.2,0,0,0,2.2,2.2H12.878a2.2,2.2,0,0,0,2.2-2.2V55.869A.671.671,0,0,0,14.4,55.2Z" transform="translate(198.399 540.461)" fill="#fff"/>
    <g id="Group_86" data-name="Group 86" transform="translate(202.977 586)">
      <g id="Group_85" data-name="Group 85">
        <path id="Path_41" data-name="Path 41" d="M153.017,3.249,149.965.2a.671.671,0,0,0-.948,0l-7.63,7.63a.671.671,0,0,0-.2.474v3.052a.671.671,0,0,0,.671.671h3.052a.67.67,0,0,0,.474-.2l7.63-7.63a.671.671,0,0,0,0-.948Zm-8.382,7.433h-2.1v-2.1l6.959-6.959,2.1,2.1Z" transform="translate(-141.191 0)" fill="#fff"/>
      </g>
    </g>
  </g>
</svg>
