<svg id="twitter_1_" data-name="twitter (1)" xmlns="http://www.w3.org/2000/svg" width="33" height="33" viewBox="0 0 33 33">
  <circle id="Ellipse_231" data-name="Ellipse 231" cx="16.5" cy="16.5" r="16.5" transform="translate(0 0)" fill="#55acee"/>
  <g id="Group_199" data-name="Group 199" transform="translate(7.282 9.92)">
    <path id="Path_489" data-name="Path 489" d="M44.515,35.9a7.946,7.946,0,0,1-2.288.626,3.993,3.993,0,0,0,1.751-2.2,7.973,7.973,0,0,1-2.529.966,3.986,3.986,0,0,0-6.787,3.633,11.306,11.306,0,0,1-8.209-4.162,3.987,3.987,0,0,0,1.232,5.317,3.955,3.955,0,0,1-1.8-.5c0,.017,0,.034,0,.05a3.985,3.985,0,0,0,3.195,3.9,4,4,0,0,1-1.8.069A3.987,3.987,0,0,0,31,46.365a8.04,8.04,0,0,1-5.9,1.649,11.326,11.326,0,0,0,17.436-9.542c0-.173,0-.345-.012-.515A8.076,8.076,0,0,0,44.515,35.9Z" transform="translate(-25.103 -34.028)" fill="#fff"/>
  </g>
</svg>
