<svg id="google-plus_1_" data-name="google-plus (1)" xmlns="http://www.w3.org/2000/svg" width="33" height="33" viewBox="0 0 33 33">
  <path id="Path_482" data-name="Path 482" d="M16.5,0A16.5,16.5,0,1,1,0,16.5,16.549,16.549,0,0,1,16.5,0Z" fill="#dd4b39"/>
  <g id="Group_196" data-name="Group 196" transform="translate(6.416 10.113)">
    <path id="Path_483" data-name="Path 483" d="M190.3,121.079v1.836h1.836v1.836H190.3v1.836h-1.836v-1.836h-1.836v-1.836h1.836v-1.836Z" transform="translate(-171.952 -117.445)" fill="#fff"/>
    <path id="Path_484" data-name="Path 484" d="M57.468,99.618a6.558,6.558,0,0,1,.1-9.179A6.292,6.292,0,0,1,64.4,89.113l.918.51,1.02.714-1.632,1.632-.612-.408a3.9,3.9,0,0,0-4.793.612,4.282,4.282,0,0,0,0,5.915,3.943,3.943,0,0,0,5.711,0,3.255,3.255,0,0,0,.918-1.632v-.2H62.261v-2.04h5.813l.1.51v1.428a5.69,5.69,0,0,1-1.53,3.57A6.759,6.759,0,0,1,57.468,99.618Z" transform="translate(-55.644 -88.641)" fill="#fff"/>
  </g>
</svg>
