<svg xmlns="http://www.w3.org/2000/svg" width="27.979" height="20.983" viewBox="0 0 27.979 20.983">
  <g id="visibility" transform="translate(0 -64.008)" opacity="0.419">
    <g id="Group_7" data-name="Group 7" transform="translate(10.522 71.032)">
      <g id="Group_6" data-name="Group 6">
        <path id="Path_4" data-name="Path 4" d="M199.314,192.712a.583.583,0,0,0-.824.824,3.5,3.5,0,1,1-4.945,4.945.583.583,0,0,0-.824.824,4.662,4.662,0,1,0,6.594-6.594Z" transform="translate(-192.55 -192.542)" fill="#fff"/>
      </g>
    </g>
    <g id="Group_9" data-name="Group 9" transform="translate(9.326 69.836)">
      <g id="Group_8" data-name="Group 8" transform="translate(0 0)">
        <path id="Path_5" data-name="Path 5" d="M176.144,170.739a4.617,4.617,0,0,0-5.476,4.583,4.563,4.563,0,0,0,.082.813.584.584,0,0,0,.572.481.517.517,0,0,0,.1-.009.584.584,0,0,0,.472-.675,3.38,3.38,0,0,1-.063-.61,3.455,3.455,0,0,1,4.107-3.436.582.582,0,0,0,.2-1.147Z" transform="translate(-170.668 -170.659)" fill="#fff"/>
      </g>
    </g>
    <g id="Group_11" data-name="Group 11" transform="translate(7.291 67.967)">
      <g id="Group_10" data-name="Group 10" transform="translate(0 0)">
        <path id="Path_6" data-name="Path 6" d="M153.984,142.617a28.316,28.316,0,0,0-7.635-6.09.583.583,0,0,0-.535,1.036,27.393,27.393,0,0,1,6.942,5.43c-1.39,1.5-6.858,6.995-12.623,6.995a13.441,13.441,0,0,1-5.861-1.4.582.582,0,1,0-.506,1.049,14.577,14.577,0,0,0,6.367,1.521c7.182,0,13.582-7.466,13.852-7.784A.582.582,0,0,0,153.984,142.617Z" transform="translate(-133.435 -136.461)" fill="#fff"/>
      </g>
    </g>
    <g id="Group_13" data-name="Group 13" transform="translate(0 66.339)">
      <g id="Group_12" data-name="Group 12" transform="translate(0 0)">
        <path id="Path_7" data-name="Path 7" d="M17.814,107.33a12.036,12.036,0,0,0-3.825-.671c-7.182,0-13.582,7.466-13.852,7.784a.583.583,0,0,0-.033.71,21.64,21.64,0,0,0,5.347,5.07.579.579,0,0,0,.807-.164.581.581,0,0,0-.163-.807,21.317,21.317,0,0,1-4.76-4.4c1.342-1.457,6.847-7.026,12.653-7.026a10.911,10.911,0,0,1,3.453.61.575.575,0,0,0,.738-.366A.582.582,0,0,0,17.814,107.33Z" transform="translate(0 -106.659)" fill="#fff"/>
      </g>
    </g>
    <g id="Group_15" data-name="Group 15" transform="translate(3.497 64.008)">
      <g id="Group_14" data-name="Group 14" transform="translate(0 0)">
        <path id="Path_8" data-name="Path 8" d="M84.809,64.178a.583.583,0,0,0-.824,0L64.166,84a.583.583,0,0,0,.824.824L84.809,65A.583.583,0,0,0,84.809,64.178Z" transform="translate(-63.996 -64.008)" fill="#fff"/>
      </g>
    </g>
  </g>
</svg>
