<svg xmlns="http://www.w3.org/2000/svg" width="20.385" height="18.901" viewBox="0 0 20.385 18.901">
  <g id="pending" transform="translate(-0.001 -0.5)">
    <path id="Path_4" data-name="Path 4" d="M16.611,8.5V2a1.506,1.506,0,0,0-1.5-1.5H1.505A1.506,1.506,0,0,0,0,2v13.6a1.506,1.506,0,0,0,1.5,1.5h8.759A5.6,5.6,0,1,0,16.611,8.5ZM6.828,1.725H9.783V5.105l-1.25-.5a.614.614,0,0,0-.454,0l-1.25.5ZM1.505,15.885a.28.28,0,0,1-.28-.28V2a.28.28,0,0,1,.28-.28H5.6V6.01a.612.612,0,0,0,.84.569l1.863-.744,1.863.744a.612.612,0,0,0,.84-.569V1.725h4.1a.28.28,0,0,1,.28.28V8.225a5.6,5.6,0,0,0-5.805,7.66Zm13.276,2.291a4.38,4.38,0,1,1,4.38-4.38A4.385,4.385,0,0,1,14.781,18.176Zm0,0" fill="#fff"/>
    <path id="Path_5" data-name="Path 5" d="M357.715,265.36h-1.658V263.7a.612.612,0,1,0-1.225,0v2.271a.612.612,0,0,0,.612.612h2.271a.612.612,0,1,0,0-1.225Zm0,0" transform="translate(-340.704 -252.135)" fill="#fff"/>
  </g>
</svg>
