<svg xmlns="http://www.w3.org/2000/svg" width="20" height="19.715" viewBox="0 0 20 19.715">
  <path id="delivering" d="M19.529,17.993a1.205,1.205,0,0,0-.948-.31c-.3.035-.657.095-1.041.167V8.3a1.181,1.181,0,0,0-1.179-1.179H14.472V5.977a2.612,2.612,0,0,0-5.224,0V7.119H7.36A1.181,1.181,0,0,0,6.181,8.3v6.118a5.793,5.793,0,0,0-2.756,1.206,6.414,6.414,0,0,0-.69.679,1.037,1.037,0,0,0-.811-.391H.445A.445.445,0,0,0,0,16.355v6.28a.444.444,0,0,0,.445.445h1.48a1.04,1.04,0,0,0,1.038-1.038V21.7a32.346,32.346,0,0,1,3.567.536,29.009,29.009,0,0,0,5.3.63,16.011,16.011,0,0,0,2.362-.19,26.563,26.563,0,0,0,3.192-.768c.487-.138.947-.268,1.354-.37,1.1-.277,1.26-.968,1.26-1.356V19.049A1.435,1.435,0,0,0,19.529,17.993ZM10.137,5.977a1.723,1.723,0,0,1,3.446,0V7.119H10.137V5.977ZM7.07,8.3a.291.291,0,0,1,.29-.29H9.248V8.99a.445.445,0,0,0,.889,0V8.009h3.446V8.99a.445.445,0,0,0,.889,0V8.008h1.888a.291.291,0,0,1,.29.29v9.686c0,.014,0,.029,0,.043l-.2.042a24.409,24.409,0,0,1-3.048.506,6.966,6.966,0,0,1-2.479-.355,1.172,1.172,0,0,1-.5-.466h1.656a1.24,1.24,0,0,0,1.239-1.239v-.973A1.24,1.24,0,0,0,12.076,14.3H7.537c-.046,0-.215,0-.467.009V8.3Zm-5,13.743a.15.15,0,0,1-.149.149H.889V16.8H1.924a.15.15,0,0,1,.149.149v5.092Zm17.037-1.86c0,.094,0,.345-.589.493-.419.106-.885.238-1.378.377a26,26,0,0,1-3.074.743c-1.749.246-3.208.349-7.376-.433a31.7,31.7,0,0,0-3.731-.552v-3.3a.443.443,0,0,0,.043-.064A4.279,4.279,0,0,1,4,16.3a5.814,5.814,0,0,1,3.51-1.106h4.564a.35.35,0,0,1,.35.35v.973a.35.35,0,0,1-.35.35H7.529a.445.445,0,0,0,0,.889H9.476a1.931,1.931,0,0,0,1.035,1.253,7.646,7.646,0,0,0,2.947.455,24.939,24.939,0,0,0,3.173-.523c.779-.161,1.514-.312,2.051-.374a.329.329,0,0,1,.256.09.54.54,0,0,1,.174.392v1.133Z" transform="translate(0 -3.365)" fill="#fff"/>
</svg>
