<svg id="to-do-list" xmlns="http://www.w3.org/2000/svg" width="20" height="22.358" viewBox="0 0 20 22.358">
  <path id="Path_6" data-name="Path 6" d="M17.467,0H2.533A2.536,2.536,0,0,0,0,2.533V18.69A1.311,1.311,0,0,0,1.31,20H7.045a.437.437,0,0,0,0-.873H1.31a.437.437,0,0,1-.437-.437V2.533A1.661,1.661,0,0,1,2.533.873H15.556a2.522,2.522,0,0,0-.622,1.659V16.606a.731.731,0,0,1-1.424.231l-.658-1.975a1.363,1.363,0,0,0-2.656.431v.34H7.933a.437.437,0,0,0,0,.873H10.2v2.173a4.832,4.832,0,0,0,.374,1.869l.642,1.542a.437.437,0,1,0,.806-.336l-.642-1.542a3.965,3.965,0,0,1-.307-1.532V15.293a.49.49,0,0,1,.954-.155l.658,1.975a1.6,1.6,0,0,0,3.126-.507V9.119l.584.582a5.463,5.463,0,0,1,1.615,3.893v4.642a8.217,8.217,0,0,1-.788,3.5.437.437,0,1,0,.789.374,9.1,9.1,0,0,0,.872-3.873V13.594a6.331,6.331,0,0,0-1.871-4.511l-1.2-1.2V7.467H18.69A1.311,1.311,0,0,0,20,6.157V2.533A2.536,2.536,0,0,0,17.467,0Zm1.659,6.157a.437.437,0,0,1-.437.437H15.808V2.533a1.659,1.659,0,0,1,3.319,0Zm0,0" fill="#fff"/>
  <path id="Path_7" data-name="Path 7" d="M195.437,438a.437.437,0,1,0,.309.128A.44.44,0,0,0,195.437,438Zm0,0" transform="translate(-186.485 -418.869)" fill="#fff"/>
  <path id="Path_8" data-name="Path 8" d="M57.336,54.873A.874.874,0,0,0,56.463,54H54.541a.874.874,0,0,0-.873.873v1.921a.874.874,0,0,0,.873.873h1.921a.874.874,0,0,0,.873-.873Zm-.873,1.921H54.541V54.873h1.921v1.921Zm0,0" transform="translate(-51.324 -51.642)" fill="#fff"/>
  <path id="Path_9" data-name="Path 9" d="M57.336,174.873a.874.874,0,0,0-.873-.873H54.541a.874.874,0,0,0-.873.873v1.921a.874.874,0,0,0,.873.873h1.921a.874.874,0,0,0,.873-.873Zm-.873,1.921H54.541v-1.921h1.921v1.921Zm0,0" transform="translate(-51.324 -166.402)" fill="#fff"/>
  <path id="Path_10" data-name="Path 10" d="M56.463,294H54.541a.874.874,0,0,0-.873.873v1.921a.874.874,0,0,0,.873.873h1.921a.874.874,0,0,0,.873-.873v-1.921A.874.874,0,0,0,56.463,294Zm0,2.795H54.541v-1.921h1.921v1.921Zm0,0" transform="translate(-51.324 -281.161)" fill="#fff"/>
  <path id="Path_11" data-name="Path 11" d="M220.842,118.873a.437.437,0,0,0,0-.873h-3.01a.437.437,0,0,0,0,.873Zm0,0" transform="translate(-207.901 -112.847)" fill="#fff"/>
  <path id="Path_12" data-name="Path 12" d="M172.1,118.873a.437.437,0,1,0-.309-.128A.44.44,0,0,0,172.1,118.873Zm0,0" transform="translate(-164.172 -112.847)" fill="#fff"/>
  <path id="Path_13" data-name="Path 13" d="M172.1,238.873h5.007a.437.437,0,0,0,0-.873H172.1a.437.437,0,1,0,0,.873Zm0,0" transform="translate(-164.168 -227.607)" fill="#fff"/>
</svg>
