<svg xmlns="http://www.w3.org/2000/svg" width="20" height="21.081" viewBox="0 0 20 21.081">
  <g id="file" transform="translate(-13.132)">
    <path id="Path_14" data-name="Path 14" d="M27.959,20.993v-.167l5.942-6v6.166Z" transform="translate(-14.217 -14.217)"/>
    <g id="Group_12" data-name="Group 12" transform="translate(13.132)">
      <path id="Path_15" data-name="Path 15" d="M31.5,219.368a.61.61,0,0,0-.892.834,4.843,4.843,0,1,1-3.538-1.536.611.611,0,0,0,0-1.221,6.065,6.065,0,0,0-5.8,7.834H14.353v-6.9a.61.61,0,1,0-1.221,0v7.509a.61.61,0,0,0,.61.611h8.052a6.063,6.063,0,1,0,9.7-7.132Z" transform="translate(-13.132 -208.492)" fill="#fff"/>
      <path id="Path_16" data-name="Path 16" d="M28.844,0h-9.2a.606.606,0,0,0-.078.01h0a.6.6,0,0,0-.074.021L19.473.04a.613.613,0,0,0-.07.031h0a.612.612,0,0,0-.067.043l-.016.012a.606.606,0,0,0-.061.053l-5.942,6a.6.6,0,0,0-.041.045c-.009.011-.016.022-.024.033l-.011.015c-.009.014-.017.028-.025.042l-.005.009c-.008.015-.014.029-.021.044l0,.009c-.006.014-.011.029-.015.043l0,.013c0,.013-.007.027-.01.041s0,.012,0,.017,0,.025-.006.038,0,.014,0,.021,0,.025,0,.037,0,.014,0,.021v.167a.61.61,0,0,0,.61.61h5.942a.61.61,0,0,0,.61-.61V1.221h7.934v5.9a.61.61,0,1,0,1.221,0V.61A.611.611,0,0,0,28.844,0Zm-13.8,6.166L18.8,2.379l.282-.284V6.166Z" transform="translate(-13.137)" fill="#fff"/>
    </g>
    <path id="Path_17" data-name="Path 17" d="M284.189,294.5l-1.68-1.68,1.68-1.68-1.344-1.344-1.68,1.68-1.68-1.68-1.344,1.344,1.68,1.68-1.68,1.68,1.344,1.344,1.68-1.68,1.68,1.68Z" transform="translate(-254.096 -277.86)"/>
    <path id="Path_18" data-name="Path 18" d="M268.629,282.234a.611.611,0,0,1-.432-.179l-1.248-1.248-1.248,1.248a.611.611,0,0,1-.863,0l-1.344-1.344a.611.611,0,0,1,0-.863l1.248-1.248-1.248-1.248a.61.61,0,0,1,0-.863l1.344-1.344a.611.611,0,0,1,.863,0l1.248,1.249,1.248-1.249a.61.61,0,0,1,.863,0l1.344,1.344a.61.61,0,0,1,0,.863l-1.248,1.248,1.248,1.248a.611.611,0,0,1,0,.863l-1.344,1.344A.61.61,0,0,1,268.629,282.234Zm-3.841-1.955.481.481,1.248-1.249a.611.611,0,0,1,.863,0l1.248,1.249.481-.481-1.248-1.248a.611.611,0,0,1,0-.863l1.248-1.248-.481-.481-1.248,1.249a.611.611,0,0,1-.863,0l-1.248-1.249-.481.481,1.248,1.248a.611.611,0,0,1,0,.863Z" transform="translate(-239.881 -263.643)" fill="#fff"/>
  </g>
</svg>
