<svg id="Group_289" data-name="Group 289" xmlns="http://www.w3.org/2000/svg" width="20.566" height="20.566" viewBox="0 0 20.566 20.566">
  <g id="Group_288" data-name="Group 288">
    <path id="Path_82" data-name="Path 82" d="M20.1,17.823l-5.362-5.362a7.961,7.961,0,0,0,1.334-4.428,8.034,8.034,0,1,0-8.034,8.034,7.962,7.962,0,0,0,4.428-1.333l1.482,1.482h0L17.823,20.1A1.607,1.607,0,1,0,20.1,17.823Zm-7.822-3.936h0a7.237,7.237,0,1,1,1.615-1.615A7.265,7.265,0,0,1,12.273,13.887Zm.843.364a8.061,8.061,0,0,0,1.136-1.136l1.14,1.14a9.75,9.75,0,0,1-1.136,1.136Zm6.412,5.276a.8.8,0,0,1-1.136,0L14.825,15.96a10.555,10.555,0,0,0,1.136-1.136l3.567,3.567a.8.8,0,0,1,0,1.136Z" fill="#fff"/>
  </g>
</svg>
