<svg id="smile" xmlns="http://www.w3.org/2000/svg" width="16" height="16" viewBox="0 0 16 16">
  <g id="Group_16" data-name="Group 16">
    <g id="Group_15" data-name="Group 15">
      <path id="Path_3" data-name="Path 3" d="M8,0a8,8,0,1,0,8,8A8.009,8.009,0,0,0,8,0ZM8,15.333A7.333,7.333,0,1,1,15.333,8,7.342,7.342,0,0,1,8,15.333Z" fill="#7d7d7d"/>
      <path id="Path_4" data-name="Path 4" d="M119.211,298.69a.331.331,0,0,0-.4.247,4,4,0,0,1-7.785,0,.333.333,0,1,0-.649.153,4.668,4.668,0,0,0,9.082.005A.333.333,0,0,0,119.211,298.69Z" transform="translate(-106.918 -289.342)" fill="#7d7d7d"/>
      <path id="Path_5" data-name="Path 5" d="M107.335,151.333a1.333,1.333,0,1,1,2.667,0,.333.333,0,1,0,.667,0,2,2,0,0,0-4,0,.333.333,0,1,0,.667,0Z" transform="translate(-103.335 -144.666)" fill="#7d7d7d"/>
      <path id="Path_6" data-name="Path 6" d="M279.333,149.333a2,2,0,0,0-2,2,.333.333,0,1,0,.667,0,1.333,1.333,0,1,1,2.667,0,.333.333,0,0,0,.667,0A2,2,0,0,0,279.333,149.333Z" transform="translate(-268.666 -144.666)" fill="#7d7d7d"/>
    </g>
  </g>
</svg>
