<svg id="Group_24" data-name="Group 24" xmlns="http://www.w3.org/2000/svg" width="7.012" height="7.012" viewBox="0 0 7.012 7.012">
  <path id="Path_1" data-name="Path 1" d="M3.506,0A3.506,3.506,0,1,0,7.012,3.506,3.51,3.51,0,0,0,3.506,0Zm0,6.266a2.76,2.76,0,1,1,2.76-2.76A2.763,2.763,0,0,1,3.506,6.266Z" fill="#e2e2e2"/>
  <g id="Group_23" data-name="Group 23">
    <path id="Path_2" data-name="Path 2" d="M46.219,19.013H44.643V17.119a.289.289,0,1,0-.577,0V19.3a.289.289,0,0,0,.289.289h1.864a.289.289,0,0,0,0-.577Z" transform="translate(-40.886 -15.615)" fill="#e2e2e2"/>
  </g>
</svg>
