<svg id="Group_22" data-name="Group 22" xmlns="http://www.w3.org/2000/svg" width="7.853" height="7.853" viewBox="0 0 7.853 7.853">
  <path id="Path_1" data-name="Path 1" d="M3.926,0A3.926,3.926,0,1,0,7.853,3.926,3.931,3.931,0,0,0,3.926,0Zm0,7.017A3.091,3.091,0,1,1,7.017,3.926,3.094,3.094,0,0,1,3.926,7.017Z" fill="#686868"/>
  <path id="Path_2" data-name="Path 2" d="M46.477,19.275H44.713V17.153a.323.323,0,1,0-.647,0V19.6a.323.323,0,0,0,.323.323h2.088a.323.323,0,0,0,0-.647Z" transform="translate(-40.504 -15.47)" fill="#686868"/>
</svg>
