<svg xmlns="http://www.w3.org/2000/svg" width="14" height="8.228" viewBox="0 0 14 8.228">
  <g id="about-us" transform="translate(0 -103.615)">
    <g id="Group_431" data-name="Group 431" transform="translate(0 103.615)">
      <path id="Path_2526" data-name="Path 2526" d="M186.249,107.347a1.866,1.866,0,1,0-1.862-1.865A1.865,1.865,0,0,0,186.249,107.347Z" transform="translate(-179.251 -103.615)"/>
      <path id="Path_2527" data-name="Path 2527" d="M166.693,248.506H163.7a1.04,1.04,0,0,0-.973,1.092v3c0,.033.017.063.019.1h4.9a.969.969,0,0,0,.017-.1v-3A1.037,1.037,0,0,0,166.693,248.506Z" transform="translate(-158.198 -244.47)"/>
      <path id="Path_2528" data-name="Path 2528" d="M379.5,165.171a1.5,1.5,0,1,0-1.492-1.495A1.493,1.493,0,0,0,379.5,165.171Z" transform="translate(-367.477 -160.549)"/>
      <path id="Path_2529" data-name="Path 2529" d="M363.776,278.317h-2.4a.835.835,0,0,0-.782.877V281.6c0,.026.013.05.014.079h3.928c0-.028.014-.053.014-.079v-2.407A.831.831,0,0,0,363.776,278.317Z" transform="translate(-350.554 -273.451)"/>
      <path id="Path_2530" data-name="Path 2530" d="M18.9,165.171a1.5,1.5,0,1,0-1.493-1.495,1.493,1.493,0,0,0,1.493,1.495Z" transform="translate(-16.923 -160.549)"/>
      <path id="Path_2531" data-name="Path 2531" d="M3.178,278.317H.779a.833.833,0,0,0-.779.877V281.6c0,.026.013.05.015.079H3.943c0-.028.013-.053.013-.079v-2.407A.832.832,0,0,0,3.178,278.317Z" transform="translate(0 -273.451)"/>
    </g>
  </g>
</svg>
