<svg xmlns="http://www.w3.org/2000/svg" width="23.728" height="17" viewBox="0 0 23.728 17">
  <g id="Shipping" transform="translate(0 -72.533)">
    <g id="Group_2" data-name="Group 2" transform="translate(3.163 84.789)">
      <g id="Group_1" data-name="Group 1">
        <path id="Path_1" data-name="Path 1" d="M70.639,337.067a2.372,2.372,0,1,0,2.372,2.372A2.372,2.372,0,0,0,70.639,337.067Zm0,3.953a1.581,1.581,0,1,1,1.581-1.581A1.581,1.581,0,0,1,70.639,341.02Z" transform="translate(-68.267 -337.067)" fill="#727c8e"/>
      </g>
    </g>
    <g id="Group_4" data-name="Group 4" transform="translate(16.605 84.789)">
      <g id="Group_3" data-name="Group 3">
        <path id="Path_2" data-name="Path 2" d="M360.772,337.067a2.372,2.372,0,1,0,2.372,2.372A2.372,2.372,0,0,0,360.772,337.067Zm0,3.953a1.581,1.581,0,1,1,1.581-1.581A1.581,1.581,0,0,1,360.772,341.02Z" transform="translate(-358.4 -337.067)" fill="#727c8e"/>
      </g>
    </g>
    <g id="Group_6" data-name="Group 6" transform="translate(15.017 76.882)">
      <g id="Group_5" data-name="Group 5" transform="translate(0)">
        <path id="Path_3" data-name="Path 3" d="M332.9,172.116l-3.558-5.535a.4.4,0,0,0-.332-.181h-4.349a.4.4,0,0,0-.4.4v9.884a.4.4,0,0,0,.4.4h1.581v-.791h-1.186V167.2H328.8l3.379,5.256v3.837H330.2v.791h2.372a.4.4,0,0,0,.4-.4V172.33a.4.4,0,0,0-.072-.214Z" transform="translate(-324.261 -166.4)" fill="#727c8e"/>
      </g>
    </g>
    <g id="Group_8" data-name="Group 8" transform="translate(16.604 78.463)">
      <g id="Group_7" data-name="Group 7" transform="translate(0)">
        <path id="Path_4" data-name="Path 4" d="M359.192,204.091v-2.767h3.163v-.791H358.8a.4.4,0,0,0-.4.4v3.558a.4.4,0,0,0,.4.4h5.93V204.1h-5.535Z" transform="translate(-358.4 -200.533)" fill="#727c8e"/>
      </g>
    </g>
    <g id="Group_10" data-name="Group 10" transform="translate(0 74.114)">
      <g id="Group_9" data-name="Group 9">
        <path id="Path_5" data-name="Path 5" d="M15.419,106.667H.4a.4.4,0,0,0-.4.4v12.651a.4.4,0,0,0,.4.4H3.558v-.791H.791v-11.86H15.023v11.86H7.512v.791h7.907a.4.4,0,0,0,.4-.4V107.062a.4.4,0,0,0-.4-.395Z" transform="translate(0 -106.667)" fill="#727c8e"/>
      </g>
    </g>
    <g id="Group_12" data-name="Group 12" transform="translate(0.395 85.184)">
      <g id="Group_11" data-name="Group 11">
        <rect id="Rectangle_1" data-name="Rectangle 1" width="2.372" height="0.791" fill="#727c8e"/>
      </g>
    </g>
    <g id="Group_14" data-name="Group 14" transform="translate(8.302 85.184)">
      <g id="Group_13" data-name="Group 13">
        <rect id="Rectangle_2" data-name="Rectangle 2" width="6.721" height="0.791" fill="#727c8e"/>
      </g>
    </g>
    <g id="Group_16" data-name="Group 16" transform="translate(21.744 85.184)">
      <g id="Group_15" data-name="Group 15">
        <rect id="Rectangle_3" data-name="Rectangle 3" width="1.581" height="0.791" fill="#727c8e"/>
      </g>
    </g>
    <g id="Group_18" data-name="Group 18" transform="translate(1.581 75.696)">
      <g id="Group_17" data-name="Group 17">
        <rect id="Rectangle_4" data-name="Rectangle 4" width="13.837" height="0.791" fill="#727c8e"/>
      </g>
    </g>
    <g id="Group_20" data-name="Group 20" transform="translate(5.14 86.766)">
      <g id="Group_19" data-name="Group 19">
        <rect id="Rectangle_5" data-name="Rectangle 5" width="0.791" height="0.791" fill="#727c8e"/>
      </g>
    </g>
    <g id="Group_22" data-name="Group 22" transform="translate(18.581 86.766)">
      <g id="Group_21" data-name="Group 21">
        <rect id="Rectangle_6" data-name="Rectangle 6" width="0.791" height="0.791" fill="#727c8e"/>
      </g>
    </g>
    <g id="Group_24" data-name="Group 24" transform="translate(1.581 72.533)">
      <g id="Group_23" data-name="Group 23">
        <rect id="Rectangle_7" data-name="Rectangle 7" width="5.535" height="0.791" fill="#727c8e"/>
      </g>
    </g>
    <g id="Group_26" data-name="Group 26" transform="translate(0 72.533)">
      <g id="Group_25" data-name="Group 25">
        <rect id="Rectangle_8" data-name="Rectangle 8" width="0.791" height="0.791" fill="#727c8e"/>
      </g>
    </g>
  </g>
</svg>
