<svg id="Group_202" data-name="Group 202" xmlns="http://www.w3.org/2000/svg" width="12" height="9.428" viewBox="0 0 12 9.428">
  <path id="Path_1" data-name="Path 1" d="M1.152,57.726q.228.161,1.373.954T4.279,59.9l.285.2q.218.157.362.255t.348.218a2.02,2.02,0,0,0,.385.181,1.061,1.061,0,0,0,.335.06h.013a1.062,1.062,0,0,0,.335-.06,2.022,2.022,0,0,0,.385-.181q.2-.121.348-.218t.362-.255l.285-.2,3.134-2.176a3.181,3.181,0,0,0,.817-.824A1.768,1.768,0,0,0,12,55.891a1.081,1.081,0,0,0-1.071-1.071H1.071a.956.956,0,0,0-.794.348A1.352,1.352,0,0,0,0,56.039a1.564,1.564,0,0,0,.368.914A3.324,3.324,0,0,0,1.152,57.726Z" transform="translate(0 -54.82)"/>
  <path id="Path_2" data-name="Path 2" d="M11.33,185.02q-2.2,1.486-3.335,2.31-.382.281-.619.439a3.822,3.822,0,0,1-.633.321,1.927,1.927,0,0,1-.736.164H5.993a1.928,1.928,0,0,1-.737-.164,3.824,3.824,0,0,1-.633-.321q-.238-.157-.619-.439-.9-.663-3.328-2.31A3.548,3.548,0,0,1,0,184.437v5.317a1.031,1.031,0,0,0,.315.757,1.032,1.032,0,0,0,.757.315h9.857A1.075,1.075,0,0,0,12,189.754v-5.317A3.693,3.693,0,0,1,11.33,185.02Z" transform="translate(0 -181.397)"/>
</svg>
