<svg xmlns="http://www.w3.org/2000/svg" width="17.595" height="13.825" viewBox="0 0 17.595 13.825">
  <g id="envelope_2_" data-name="envelope (2)" transform="translate(0 -54.82)">
    <g id="Group_7" data-name="Group 7" transform="translate(0 54.82)" opacity="0.8">
      <path id="Path_1" data-name="Path 1" d="M1.689,59.081q.334.236,2.013,1.4t2.573,1.792q.1.069.417.3t.53.373q.211.142.511.319a2.963,2.963,0,0,0,.565.265,1.556,1.556,0,0,0,.491.088h.02a1.557,1.557,0,0,0,.491-.088,2.965,2.965,0,0,0,.565-.265q.3-.177.511-.319t.53-.373q.319-.231.417-.3l4.6-3.191a4.664,4.664,0,0,0,1.2-1.208,2.593,2.593,0,0,0,.481-1.482,1.584,1.584,0,0,0-1.571-1.571H1.571a1.4,1.4,0,0,0-1.164.511A1.982,1.982,0,0,0,0,56.607a2.294,2.294,0,0,0,.54,1.34A4.874,4.874,0,0,0,1.689,59.081Z" transform="translate(0 -54.82)" fill="#fff"/>
      <path id="Path_2" data-name="Path 2" d="M16.613,185.291q-3.22,2.18-4.89,3.388-.56.412-.908.643a5.6,5.6,0,0,1-.928.471,2.825,2.825,0,0,1-1.08.241h-.02a2.826,2.826,0,0,1-1.08-.241,5.607,5.607,0,0,1-.928-.471q-.348-.231-.908-.643-1.326-.972-4.88-3.388A5.2,5.2,0,0,1,0,184.437v7.8a1.512,1.512,0,0,0,.461,1.11,1.513,1.513,0,0,0,1.11.462H16.025a1.576,1.576,0,0,0,1.571-1.571v-7.8A5.414,5.414,0,0,1,16.613,185.291Z" transform="translate(0 -179.979)" fill="#fff"/>
    </g>
  </g>
</svg>
