<svg xmlns="http://www.w3.org/2000/svg" width="16" height="16" viewBox="0 0 16 16">
  <path id="Grid_View" data-name="Grid View" d="M15.133,16H9.512a.866.866,0,0,1-.865-.865V9.514a.866.866,0,0,1,.865-.865h5.622A.866.866,0,0,1,16,9.514v5.622A.866.866,0,0,1,15.133,16ZM9.512,9.514v5.622h5.622V9.514ZM6.484,16H.863A.866.866,0,0,1,0,15.135V9.514a.866.866,0,0,1,.865-.865H6.484a.866.866,0,0,1,.865.865v5.622A.866.866,0,0,1,6.484,16ZM.863,9.514v5.622H6.485V9.514Zm14.27-2.162H9.512a.866.866,0,0,1-.865-.865V.865A.866.866,0,0,1,9.512,0h5.622A.866.866,0,0,1,16,.865V6.486A.866.866,0,0,1,15.133,7.351ZM9.512.865V6.486h5.622V.865ZM6.484,7.351H.863A.866.866,0,0,1,0,6.486V.865A.866.866,0,0,1,.863,0H6.484a.866.866,0,0,1,.865.865V6.486A.866.866,0,0,1,6.484,7.351ZM.863.865V6.486H6.485V.865Z" transform="translate(0.002)" fill-rule="evenodd"/>
</svg>
