<svg xmlns="http://www.w3.org/2000/svg" width="21.412" height="21.363" viewBox="0 0 21.412 21.363">
  <g id="call-answer" transform="translate(0 -0.394)">
    <g id="Group_9" data-name="Group 9" transform="translate(0 0.394)">
      <g id="Group_8" data-name="Group 8" transform="translate(0 0)">
        <path id="Path_2" data-name="Path 2" d="M20.931,17.291l-3.307-3.307a1.724,1.724,0,0,0-2.431.046L13.528,15.7l-.329-.183a16.578,16.578,0,0,1-4.007-2.9A16.671,16.671,0,0,1,6.288,8.6c-.062-.112-.121-.219-.179-.321L7.227,7.162l.55-.55a1.723,1.723,0,0,0,.044-2.431L4.514.873A1.722,1.722,0,0,0,2.083.919l-.932.937.025.025A5.389,5.389,0,0,0,.409,3.236,5.616,5.616,0,0,0,.067,4.61c-.437,3.62,1.217,6.928,5.707,11.417,6.205,6.2,11.206,5.736,11.422,5.713a5.587,5.587,0,0,0,1.378-.346,5.371,5.371,0,0,0,1.35-.765l.02.018.944-.925A1.726,1.726,0,0,0,20.931,17.291Z" transform="translate(0 -0.394)" fill="#1b13ff"/>
      </g>
    </g>
  </g>
</svg>
