<svg xmlns="http://www.w3.org/2000/svg" width="15" height="13.542" viewBox="0 0 15 13.542">
  <g id="policy" transform="translate(0.001)">
    <path id="Path_2538" data-name="Path 2538" d="M13.417,0h-9.7A1.521,1.521,0,0,0,2.191,1.51l-.063,8.541H.236A.246.246,0,0,0,0,10.3v1.175a2.06,2.06,0,0,0,1.943,2.05v.014h8.168v-.016c.061,0,.1.016.139.016h.006A2.053,2.053,0,0,0,12.3,11.478V4.008h2.466A.249.249,0,0,0,15,3.753V1.6A1.593,1.593,0,0,0,13.417,0ZM2.049,13.057h0A1.574,1.574,0,0,1,.485,11.478v-.942H8.2v.938a2.056,2.056,0,0,0,.6,1.459.872.872,0,0,1,.128.123Zm9.762-1.578a1.569,1.569,0,0,1-1.556,1.578h0a1.578,1.578,0,0,1-1.567-1.582V10.3a.252.252,0,0,0-.243-.253H2.615l.063-8.539A1.035,1.035,0,0,1,3.718.486h8.553a1.658,1.658,0,0,0-.46,1.117Zm2.7-9.878V3.522H12.3V1.6A1.125,1.125,0,0,1,13.41.486h.007a1.107,1.107,0,0,1,1.1,1.113Zm0,0"/>
    <path id="Path_2539" data-name="Path 2539" d="M163.751,57.927l1.252.856a.239.239,0,0,0,.271,0l1.249-.856a1.887,1.887,0,0,0,.754-1.439V54.755a.237.237,0,0,0-.13-.218l-1.907-.938a.239.239,0,0,0-.212,0l-1.9.935a.237.237,0,0,0-.129.218v1.735A1.887,1.887,0,0,0,163.751,57.927Zm-.269-3.022,1.655-.817,1.655.819v1.581a1.4,1.4,0,0,1-.542,1.038l-1.115.763-1.111-.763a1.4,1.4,0,0,1-.541-1.038Zm0,0" transform="translate(-158.047 -51.947)"/>
    <path id="Path_2540" data-name="Path 2540" d="M202.1,117.511a.243.243,0,0,0,.172.073h0a.243.243,0,0,0,.172-.072l.966-.967a.243.243,0,0,0-.344-.344l-.794.794-.317-.32a.243.243,0,1,0-.345.342Zm0,0" transform="translate(-195.422 -112.604)"/>
    <path id="Path_2541" data-name="Path 2541" d="M139.073,248h-5.83a.243.243,0,0,0,0,.486h5.83a.243.243,0,0,0,0-.486Zm0,0" transform="translate(-128.962 -240.47)"/>
    <path id="Path_2542" data-name="Path 2542" d="M139.073,285h-5.83a.243.243,0,1,0,0,.486h5.83a.243.243,0,0,0,0-.486Zm0,0" transform="translate(-128.962 -276.346)"/>
  </g>
</svg>
