<svg xmlns="http://www.w3.org/2000/svg" width="15" height="16.07" viewBox="0 0 15 16.07">
  <g id="Expand" transform="translate(-4 -2)">
    <path id="Path_2547" data-name="Path 2547" d="M19,3.875v-.8A1.071,1.071,0,0,0,17.928,2H6.411A1.071,1.071,0,0,0,5.339,3.071v.536H4.8a.8.8,0,1,0,0,1.607h.536V15.928H4.268A.268.268,0,0,0,4,16.2V17a1.071,1.071,0,0,0,1.071,1.071h9.642a4.282,4.282,0,0,0,2.678-7.626v-6.3h1.339A.268.268,0,0,0,19,3.875ZM4.536,4.411A.268.268,0,0,1,4.8,4.143h7.232v.536H4.8A.268.268,0,0,1,4.536,4.411Zm9.311-.268.536.268-.536.268H12.571V4.143ZM5.071,17.535A.536.536,0,0,1,4.536,17v-.536h6.838a4.318,4.318,0,0,0,1.27,1.071Zm13.392-3.75a3.75,3.75,0,1,1-3.75-3.75,3.75,3.75,0,0,1,3.75,3.75ZM14.714,9.5a4.278,4.278,0,0,0-3.706,6.428H5.875V5.214H13.91a.268.268,0,0,0,.12-.028L15.1,4.65a.268.268,0,0,0,0-.479L14.03,3.635a.268.268,0,0,0-.12-.028H5.875V3.071a.536.536,0,0,1,.536-.536H17.006a1.06,1.06,0,0,0-.149.536V10.08A4.254,4.254,0,0,0,14.714,9.5Zm3.75-5.893H17.392V3.071a.536.536,0,1,1,1.071,0Z"/>
    <rect id="Rectangle_1568" data-name="Rectangle 1568" width="0.536" height="0.536" transform="translate(13.578 13.028) rotate(-45)"/>
    <rect id="Rectangle_1569" data-name="Rectangle 1569" width="0.536" height="0.536" transform="translate(15.093 14.543) rotate(-45)"/>
    <rect id="Rectangle_1570" data-name="Rectangle 1570" width="3.214" height="0.536" transform="translate(13.388 14.732) rotate(-45)"/>
    <path id="Path_2548" data-name="Path 2548" d="M35.214,34a3.214,3.214,0,1,0,3.214,3.214A3.214,3.214,0,0,0,35.214,34Zm0,5.893a2.678,2.678,0,1,1,2.678-2.678A2.678,2.678,0,0,1,35.214,39.893Z" transform="translate(-20.5 -23.429)"/>
    <rect id="Rectangle_1571" data-name="Rectangle 1571" width="1" transform="translate(7 6)"/>
    <rect id="Rectangle_1572" data-name="Rectangle 1572" width="8" transform="translate(8 6)"/>
    <rect id="Rectangle_1573" data-name="Rectangle 1573" width="9" transform="translate(7 7)"/>
    <rect id="Rectangle_1574" data-name="Rectangle 1574" width="9" transform="translate(7 8)"/>
    <rect id="Rectangle_1575" data-name="Rectangle 1575" width="5" height="1" transform="translate(7 9)"/>
    <rect id="Rectangle_1576" data-name="Rectangle 1576" width="2" height="1" transform="translate(7 14)"/>
    <path id="Path_2549" data-name="Path 2549" d="M14,35.268v2.143a.268.268,0,0,0,.268.268h2.946v-.536H14.536V35.536h3.482V35h-3.75A.268.268,0,0,0,14,35.268Z" transform="translate(-7.322 -24.161)"/>
    <rect id="Rectangle_1577" data-name="Rectangle 1577" width="1" height="5" transform="translate(17 5)"/>
    <rect id="Rectangle_1578" data-name="Rectangle 1578" width="1" height="6" transform="translate(4 6)"/>
    <rect id="Rectangle_1579" data-name="Rectangle 1579" width="1" transform="translate(4 13)"/>
  </g>
</svg>
