<svg id="web" xmlns="http://www.w3.org/2000/svg" width="14" height="14" viewBox="0 0 14 14">
  <g id="Group_433" data-name="Group 433">
    <g id="Group_432" data-name="Group 432">
      <path id="Path_2532" data-name="Path 2532" d="M12.833,0H1.167A1.168,1.168,0,0,0,0,1.167V12.833A1.168,1.168,0,0,0,1.167,14H12.833A1.168,1.168,0,0,0,14,12.833V1.167A1.168,1.168,0,0,0,12.833,0Zm.7,12.833a.7.7,0,0,1-.7.7H1.167a.7.7,0,0,1-.7-.7V2.333H13.533v10.5Zm0-10.967H.467v-.7a.7.7,0,0,1,.7-.7H12.833a.7.7,0,0,1,.7.7v.7Z"/>
      <path id="Path_2533" data-name="Path 2533" d="M43.134,34.133H42.9a.233.233,0,0,0,0,.467h.233a.233.233,0,0,0,0-.467Z" transform="translate(-41.5 -33.2)"/>
      <path id="Path_2534" data-name="Path 2534" d="M85.655,34.131a.214.214,0,0,0-.177,0,.269.269,0,0,0-.077.049.237.237,0,0,0,0,.331.269.269,0,0,0,.077.049.22.22,0,0,0,.177,0,.269.269,0,0,0,.077-.049.237.237,0,0,0,0-.331A.269.269,0,0,0,85.655,34.131Z" transform="translate(-83 -33.179)"/>
      <path id="Path_2535" data-name="Path 2535" d="M119.789,34.1a.233.233,0,0,0-.255.051.27.27,0,0,0-.049.077.22.22,0,0,0,0,.177.27.27,0,0,0,.049.077.237.237,0,0,0,.331,0,.27.27,0,0,0,.049-.077.2.2,0,0,0,.019-.089A.233.233,0,0,0,119.789,34.1Z" transform="translate(-116.199 -33.152)"/>
      <path id="Path_2536" data-name="Path 2536" d="M170.3,34.133h-7.933a.233.233,0,0,0,0,.467H170.3a.233.233,0,1,0,0-.467Z" transform="translate(-157.701 -33.2)"/>
      <path id="Path_2537" data-name="Path 2537" d="M86.617,127.327a.213.213,0,0,0,.035.026,4.646,4.646,0,0,0,6.77,0,.218.218,0,0,0,.033-.023.228.228,0,0,0,.02-.034,4.638,4.638,0,0,0,0-6.288h0a.228.228,0,0,0-.02-.034.208.208,0,0,0-.035-.026,4.646,4.646,0,0,0-6.767,0,.207.207,0,0,0-.035.026.228.228,0,0,0-.02.034,4.638,4.638,0,0,0,0,6.288A.225.225,0,0,0,86.617,127.327Zm4.69.823a4.288,4.288,0,0,0,.794-1.47h0a4.272,4.272,0,0,1,.824.507A4.2,4.2,0,0,1,91.307,128.15Zm1.941-1.3a4.732,4.732,0,0,0-1.014-.622,8.318,8.318,0,0,0,.244-1.843h1.744A4.177,4.177,0,0,1,93.248,126.848Zm.974-2.932H92.478a8.321,8.321,0,0,0-.244-1.843,4.732,4.732,0,0,0,1.014-.621A4.177,4.177,0,0,1,94.222,123.916Zm-1.3-2.8a4.271,4.271,0,0,1-.824.507,4.288,4.288,0,0,0-.794-1.471A4.2,4.2,0,0,1,92.926,121.111Zm-2.658-1.129c.572.15,1.078.837,1.4,1.811a4.954,4.954,0,0,1-1.4.266Zm0,2.544a5.4,5.4,0,0,0,1.525-.28,7.9,7.9,0,0,1,.219,1.67H90.267Zm0,1.857h1.744a7.9,7.9,0,0,1-.219,1.67,5.4,5.4,0,0,0-1.525-.28Zm0,1.857a4.955,4.955,0,0,1,1.4.266c-.319.973-.825,1.661-1.4,1.811Zm-3.125.946a4.272,4.272,0,0,1,.824-.506h0a4.288,4.288,0,0,0,.794,1.47A4.2,4.2,0,0,1,87.142,127.186Zm2.658,1.13c-.572-.15-1.078-.837-1.4-1.811a4.954,4.954,0,0,1,1.4-.266Zm0-2.544a5.4,5.4,0,0,0-1.525.28,7.9,7.9,0,0,1-.219-1.67H89.8Zm0-1.857H88.057a7.9,7.9,0,0,1,.219-1.67,5.4,5.4,0,0,0,1.525.28Zm0-3.934v2.077a4.955,4.955,0,0,1-1.4-.266C88.723,120.819,89.229,120.131,89.8,119.982Zm-1.039.165a4.287,4.287,0,0,0-.794,1.471h0a4.27,4.27,0,0,1-.824-.507A4.2,4.2,0,0,1,88.761,120.147Zm-1.941,1.3a4.732,4.732,0,0,0,1.014.622,8.318,8.318,0,0,0-.244,1.843H85.846A4.177,4.177,0,0,1,86.82,121.451Zm.77,2.932a8.321,8.321,0,0,0,.244,1.843,4.732,4.732,0,0,0-1.014.621,4.177,4.177,0,0,1-.974-2.465H87.59Z" transform="translate(-83.034 -116.216)"/>
    </g>
  </g>
</svg>
