<?xml version="1.0" encoding="iso-8859-1"?>
<!-- Generator: Adobe Illustrator 18.0.0, SVG Export Plug-In . SVG Version: 6.00 Build 0)  -->
<!DOCTYPE svg PUBLIC "-//W3C//DTD SVG 1.1//EN" "http://www.w3.org/Graphics/SVG/1.1/DTD/svg11.dtd">
<svg version="1.1" id="Capa_1" xmlns="http://www.w3.org/2000/svg" xmlns:xlink="http://www.w3.org/1999/xlink" x="0px" y="0px"
	 viewBox="0 0 459.087 459.087" style="enable-background:new 0 0 459.087 459.087;" xml:space="preserve">
<g>
	<path d="M86.267,319.526h102.819c5.799,0,0.202,1.277,113.119-33.49c1.621-0.499,3.184-1.096,4.698-1.764l59.188,31.239
		c12.851,6.783,28.762,1.857,35.539-10.985c6.781-12.847,1.863-28.759-10.984-35.54l-59.186-31.238
		c-0.297-1.598-0.678-3.196-1.168-4.787c-6.9-22.412-30.665-34.986-53.076-28.086l-99.833,30.738
		c-15.088,4.645-25.705,16.935-28.936,31.307H86.267c-14.527,0-26.303,11.776-26.303,26.303S71.74,319.526,86.267,319.526z"/>
	<circle cx="343.597" cy="141.755" r="52.106"/>
	<path d="M444.47,340.204H14.617C6.544,340.204,0,346.748,0,354.82c0,8.072,6.544,14.617,14.617,14.617H444.47
		c8.072,0,14.617-6.544,14.617-14.617C459.087,346.748,452.543,340.204,444.47,340.204z"/>
</g>
<g>
</g>
<g>
</g>
<g>
</g>
<g>
</g>
<g>
</g>
<g>
</g>
<g>
</g>
<g>
</g>
<g>
</g>
<g>
</g>
<g>
</g>
<g>
</g>
<g>
</g>
<g>
</g>
<g>
</g>
</svg>
