<?xml version="1.0" encoding="iso-8859-1"?>
<!-- Generator: Adobe Illustrator 16.0.0, SVG Export Plug-In . SVG Version: 6.00 Build 0)  -->
<!DOCTYPE svg PUBLIC "-//W3C//DTD SVG 1.1//EN" "http://www.w3.org/Graphics/SVG/1.1/DTD/svg11.dtd">
<svg version="1.1" id="Capa_1" xmlns="http://www.w3.org/2000/svg" xmlns:xlink="http://www.w3.org/1999/xlink" x="0px" y="0px"
	 width="537.23px" height="537.23px" viewBox="0 0 537.23 537.23" style="enable-background:new 0 0 537.23 537.23;"
	 xml:space="preserve">
<g>
	<g>
		<path d="M348.572,503.522c0.191-1.706,0.306-281.405,0.306-281.405s0.679-4.322,1.511-5.824c0,0,67.593-121.009,68.439-122.505
			c5.154-9.113,5.379-20.665-0.388-30.29c-8.534-14.253-27.009-18.881-41.257-10.347c-5.222,3.127-9.138,7.918-11.604,13.02
			l-37.647,67.865c-1.731,3.003-3.701,4.179-7.373,4.179H215.806c-1.716,0-3.801-1.21-4.657-2.697c0,0-39.56-69.309-40.401-70.806
			c-5.164-9.137-14.941-15.424-26.168-15.424c-16.61,0-30.079,13.383-30.079,29.998c0,6.087,2.003,11.7,5.111,16.438l67.583,116.95
			c0.861,1.487,1.559,4.083,1.559,5.799v282.471c0.296,18.652,16.543,36.285,36.988,36.285c20.445,0,38.872-17.528,39.173-36.18
			l0.014-117.217c0-1.717,1.392-3.108,3.108-3.108h4.662c1.717,0,3.108,1.392,3.108,3.108l0.033,117.7
			c0.296,18.651,15.151,35.696,35.597,35.696C330.752,537.23,346.621,521.041,348.572,503.522z"/>
		<path d="M246.182,25.211c-15.248,8.061-25.642,24.074-25.642,42.524c-0.004,26.555,21.521,48.08,48.076,48.08
			c26.555,0,48.08-21.525,48.08-48.08c0-16.414-8.233-30.906-20.789-39.579V0l-12.957,21.826c-1.415-0.44-2.859-0.812-4.327-1.124V0
			l-11.819,19.699c-1.913,0.072-3.801,0.244-5.651,0.535V0L246.182,25.211z"/>
	</g>
</g>
<g>
</g>
<g>
</g>
<g>
</g>
<g>
</g>
<g>
</g>
<g>
</g>
<g>
</g>
<g>
</g>
<g>
</g>
<g>
</g>
<g>
</g>
<g>
</g>
<g>
</g>
<g>
</g>
<g>
</g>
</svg>
