<?xml version="1.0" encoding="iso-8859-1"?>
<!-- Generator: Adobe Illustrator 16.0.0, SVG Export Plug-In . SVG Version: 6.00 Build 0)  -->
<!DOCTYPE svg PUBLIC "-//W3C//DTD SVG 1.1//EN" "http://www.w3.org/Graphics/SVG/1.1/DTD/svg11.dtd">
<svg version="1.1" id="Capa_1" xmlns="http://www.w3.org/2000/svg" xmlns:xlink="http://www.w3.org/1999/xlink" x="0px" y="0px"
	 width="475.183px" height="475.183px" viewBox="0 0 475.183 475.183" style="enable-background:new 0 0 475.183 475.183;"
	 xml:space="preserve">
<g>
	<g>
		<path d="M296.729,141.315c-9.762,5.684-19.748,11.056-30.466,14.73c-5.935-1.361-11.647-3.647-17.249-5.996
			c-5.955-2.5-6.278-1.961-17.613-8.066c-5.827-3.139-15.154-13.527-24.718-17.85c-6.426-2.904-13.456-4.356-20.488-3.907
			c17.572-8.494,28.2-27.528,26.25-46.94c-1.793-17.86-14.117-33.502-31.044-39.463c-17.238-6.071-36.927-1.316-49.514,11.915
			c-12.594,13.238-16.353,33.181-9.397,50.092c6.844,16.641,23.126,28.141,41.103,28.988c2.107,0.1,4.217,0.047,6.318-0.135
			c-13.367,6.835-22.583,20.672-22.735,36.726c-0.165,20.512-1.505,41.022-2.562,61.503c-2.373,10.609-4.697,21.229-6.977,31.857
			c-3.194,14.896-6.303,29.813-9.258,44.76c-2.87,14.512-5.635,29.052-7.956,43.663c-0.9,5.665-1.739,11.345-2.369,17.048
			c-0.421,3.812-0.833,7.686-0.699,11.525c0.036,1.047,0.092,2.145,0.416,3.146c0.575,1.777,2.945,2.655,4.513,3.247
			c3.526,1.328,7.293,2.046,10.996,2.668c5.313,0.891,10.677,1.47,16.042,1.922c2.892,0.243,5.787,0.443,8.684,0.611
			c-0.011,6.415-0.166,12.883-0.524,19.287c-0.353,6.296-0.585,12.612-1.133,18.896c-0.522,5.988-0.862,12.019-1.617,17.981
			c-0.643,5.071-1.178,10.158-1.764,15.236c-0.058,0.498-0.115,0.997-0.173,1.495c-0.998,8.923,5.392,17.285,14.243,18.715
			c8.853,1.43,17.52-4.521,19.387-13.286c2.048-9.616,4.1-19.219,5.858-28.893c2.244-12.346,4.116-24.736,5.668-37.188
			c0.487-3.907,0.949-7.81,1.329-11.729c2.331-0.066,4.666-0.147,7-0.246c-0.055,6.436-0.177,12.831-0.532,19.257
			c-0.348,6.273-0.808,12.491-1.468,18.739c-0.321,3.04-0.637,6.081-0.959,9.121c-0.317,2.988-0.898,5.958-1.378,8.925
			c-0.622,3.855-1.24,7.713-1.857,11.569c-0.059,0.361-0.117,0.724-0.175,1.085c-1.405,8.936,4.712,17.614,13.576,19.349
			c8.791,1.72,17.641-3.938,19.792-12.628c2.302-9.292,4.712-18.547,6.503-27.953c2.37-12.44,4.528-24.948,5.687-37.569
			c0.413-4.505,0.824-9.01,1.219-13.517c10.438-1.562,21.175-3.514,30.935-7.673c5.122-2.184,12.062-5.771,12.316-12.148
			c0.216-5.407-0.973-10.886-2.268-16.103c-1.812-7.298-4.188-14.454-6.727-21.529c-6.066-16.923-13.162-33.47-20.32-49.953
			c-6.184-14.237-12.618-28.387-18.367-42.808c-2.132-15.05-4.58-30.05-6.975-45.06c5.962,1.931,12.004,3.688,18.146,4.962
			c5.597,1.16,11.439,2.013,17.142,1.147c4.24-0.645,7.582-2.545,11.257-4.623c5.131-2.901,10.074-6.146,14.86-9.583
			c5.569-4.001,10.925-8.27,16.129-12.733c5.588-4.795,6.408-13.393,1.865-19.176C310.444,139.336,302.647,137.865,296.729,141.315z
			"/>
		<path d="M286.627,119.714c1.555,2.184,3.542,4.072,6.486,3.3c-1.813,1.832-0.829,4.084,0.646,5.795
			c1.264,1.469,3.038,3.719,5.215,3.643c1.688-0.059,3.885-1.195,4.856-2.543c1.421-1.97,1.654-4.782,1.188-7.104
			c0.144,0.248,0.568,1.063,0.98,0.891c0.431-0.178,0.125-1.111,0.046-1.396c1.453,2.221,4.167,4.479,6.982,4.289
			c1.425-0.096,3.57-0.883,4.479-2.059c1.26-1.629,0.938-4.364,0.743-6.252c-0.226-2.159-1.196-4.193-3.619-4.204
			c2.619-1.533,2.688-4.28,2.242-6.921c-0.424-2.495-1.109-5.093-2.23-7.372c-0.406-0.825-0.704-1.148-1.633-1.354
			c-1.438-0.319-2.937-0.028-4.25,0.601c-3.21,1.536-7.538,9.233-6.616,14.221c-0.252-0.305-0.469-0.485-0.633-0.505l-0.103,0.018
			c-0.142,0.054-0.083,0.444-0.071,0.797c-1.597-2.321-4.484-4.042-4.484-4.042c-3.087-1.719-7.048-2.506-10.438-1.216
			c-1.358,0.517-2.594,1.409-3.339,2.678c-0.459,0.783-0.345,1.266-0.048,2.095C283.868,115.422,285.183,117.688,286.627,119.714z"
			/>
		<path d="M317.884,78.653c0.336,2.659,1.192,5.264,4.152,5.977c-2.466,0.756-2.663,3.205-2.176,5.41
			c0.42,1.892,0.917,4.714,2.87,5.677c1.515,0.747,3.988,0.785,5.482,0.059c2.184-1.063,3.722-3.43,4.409-5.696
			c0.008,0.286-0.003,1.205,0.44,1.249c0.464,0.047,0.638-0.92,0.701-1.208c0.229,2.645,1.551,5.918,4.122,7.084
			c1.3,0.589,3.563,0.911,4.921,0.306c1.881-0.839,2.894-3.399,3.613-5.155c0.824-2.009,0.931-4.261-1.199-5.416
			c3.033-0.112,4.396-2.498,5.251-5.036c0.809-2.398,1.434-5.012,1.524-7.55c0.031-0.92-0.077-1.345-0.798-1.966
			c-1.115-0.962-2.573-1.415-4.028-1.482c-3.555-0.166-11.01,4.566-12.56,9.396c-0.076-0.388-0.183-0.649-0.317-0.744l-0.1-0.033
			c-0.148-0.02-0.282,0.352-0.438,0.668c-0.308-2.801-2.038-5.683-2.038-5.683c-1.905-2.976-5.021-5.544-8.619-6.012
			c-1.441-0.188-2.952,0.015-4.209,0.779c-0.773,0.472-0.903,0.951-1.033,1.822C317.485,73.567,317.57,76.183,317.884,78.653z"/>
		<path d="M289.959,20.339c0.67,5.292,2.374,10.474,8.263,11.893c-4.903,1.504-5.299,6.379-4.326,10.767
			c0.833,3.765,1.824,9.381,5.711,11.297c3.014,1.485,7.938,1.563,10.909,0.115c4.346-2.114,7.405-6.824,8.773-11.334
			c0.017,0.568-0.005,2.396,0.88,2.484c0.923,0.094,1.266-1.83,1.395-2.403c0.456,5.262,3.086,11.775,8.203,14.096
			c2.586,1.172,7.09,1.814,9.791,0.608c3.743-1.669,5.757-6.765,7.19-10.259c1.64-3.997,1.853-8.479-2.387-10.777
			c6.036-0.223,8.747-4.971,10.449-10.021c1.607-4.772,2.852-9.972,3.033-15.023c0.064-1.829-0.153-2.676-1.587-3.912
			c-2.22-1.913-5.121-2.815-8.017-2.949c-7.073-0.33-21.909,9.087-24.99,18.698c-0.155-0.771-0.365-1.293-0.634-1.481l-0.196-0.065
			c-0.298-0.039-0.563,0.699-0.875,1.329c-0.612-5.573-4.056-11.309-4.056-11.309c-3.792-5.92-9.994-11.03-17.152-11.963
			c-2.87-0.373-5.874,0.029-8.375,1.551c-1.541,0.94-1.797,1.895-2.058,3.627C289.166,10.218,289.336,15.425,289.959,20.339z"/>
	</g>
</g>
<g>
</g>
<g>
</g>
<g>
</g>
<g>
</g>
<g>
</g>
<g>
</g>
<g>
</g>
<g>
</g>
<g>
</g>
<g>
</g>
<g>
</g>
<g>
</g>
<g>
</g>
<g>
</g>
<g>
</g>
</svg>
