<?xml version="1.0" encoding="iso-8859-1"?>
<!-- Generator: Adobe Illustrator 16.0.0, SVG Export Plug-In . SVG Version: 6.00 Build 0)  -->
<!DOCTYPE svg PUBLIC "-//W3C//DTD SVG 1.1//EN" "http://www.w3.org/Graphics/SVG/1.1/DTD/svg11.dtd">
<svg version="1.1" id="Capa_1" xmlns="http://www.w3.org/2000/svg" xmlns:xlink="http://www.w3.org/1999/xlink" x="0px" y="0px"
	 width="407.917px" height="407.917px" viewBox="0 0 407.917 407.917" style="enable-background:new 0 0 407.917 407.917;"
	 xml:space="preserve">
<g>
	<path d="M394.112,160.877h-24.386c-14.231-24.596-38.166-34.527-65.241-34.527c-27.076,0-50.993,9.932-65.219,34.527H174.16
		c-14.24-24.596-38.154-34.527-65.233-34.527c-27.082,0-51.017,9.932-65.239,34.527H13.796C6.185,160.877,0,165.564,0,173.175
		c0,7.626,6.185,12.298,13.796,12.298h17.981c-1.189,6.149-1.865,11.229-1.865,17.021c0,43.556,35.456,79.074,79.014,79.074
		s78.987-35.555,78.987-79.11c0-5.788-0.658-10.835-1.85-16.984h41.289c-1.189,6.149-1.85,11.229-1.85,17.021
		c0,43.556,35.429,79.074,78.987,79.074s78.999-35.555,78.999-79.11c0-5.788-0.661-10.835-1.85-16.984h12.478
		c7.614,0,13.799-4.672,13.799-12.298C407.917,165.564,401.732,160.877,394.112,160.877z"/>
</g>
<g>
</g>
<g>
</g>
<g>
</g>
<g>
</g>
<g>
</g>
<g>
</g>
<g>
</g>
<g>
</g>
<g>
</g>
<g>
</g>
<g>
</g>
<g>
</g>
<g>
</g>
<g>
</g>
<g>
</g>
</svg>
