<svg xmlns="http://www.w3.org/2000/svg" width="14" height="11.138" viewBox="0 0 14 11.138">
  <g id="list_2_" data-name="list (2)" transform="translate(0 0)">
    <path id="Path_2609" data-name="Path 2609" d="M0,3.1H3.1V0H0ZM.82.82H2.278V2.278H.82Zm0,0"/>
    <path id="Path_2610" data-name="Path 2610" d="M149.3,0V3.1h9.918V0Zm9.1,2.278h-8.277V.82h8.277Zm0,0" transform="translate(-145.215)"/>
    <path id="Path_2611" data-name="Path 2611" d="M0,150.106H3.1v-3.1H0Zm.82-2.278H2.278v1.457H.82Zm0,0" transform="translate(0 -142.988)"/>
    <path id="Path_2612" data-name="Path 2612" d="M149.3,150.106h9.918v-3.1H149.3Zm.82-2.278h8.277v1.457h-8.277Zm0,0" transform="translate(-145.215 -142.988)"/>
    <path id="Path_2613" data-name="Path 2613" d="M0,297.11H3.1v-3.1H0Zm.82-2.278H2.278v1.457H.82Zm0,0" transform="translate(0 -285.973)"/>
    <path id="Path_2614" data-name="Path 2614" d="M149.3,297.11h9.918v-3.1H149.3Zm.82-2.278h8.277v1.457h-8.277Zm0,0" transform="translate(-145.215 -285.973)"/>
  </g>
</svg>
