<svg id="coin" xmlns="http://www.w3.org/2000/svg" width="25.603" height="25.603" viewBox="0 0 25.603 25.603">
  <path id="Path_2515" data-name="Path 2515" d="M12.8,0A12.8,12.8,0,1,0,25.6,12.8,12.816,12.816,0,0,0,12.8,0Zm0,23.918A11.117,11.117,0,1,1,23.918,12.8,11.129,11.129,0,0,1,12.8,23.918Z" fill="#fff"/>
  <path id="Path_2516" data-name="Path 2516" d="M77.163,36.417V31.635a2.423,2.423,0,0,1,1.182.941.842.842,0,1,0,1.407-.926,4.1,4.1,0,0,0-2.589-1.763V28.548a.842.842,0,1,0-1.685,0v1.336a4.109,4.109,0,0,0,0,8.045v4.783a2.423,2.423,0,0,1-1.182-.941.842.842,0,1,0-1.407.926,4.1,4.1,0,0,0,2.589,1.763V45.8a.842.842,0,0,0,1.685,0V44.463a4.109,4.109,0,0,0,0-8.045Zm-3.269-2.511a2.426,2.426,0,0,1,1.585-2.271v4.543A2.426,2.426,0,0,1,73.894,33.907Zm3.269,8.8V38.169a2.42,2.42,0,0,1,0,4.543Z" transform="translate(-63.519 -24.372)" fill="#fff"/>
</svg>
