<svg xmlns="http://www.w3.org/2000/svg" width="15" height="14.373" viewBox="0 0 15 14.373">
  <g id="support" transform="translate(0 -8.826)">
    <g id="Group_434" data-name="Group 434" transform="translate(0 8.826)">
      <path id="Path_2546" data-name="Path 2546" d="M9.645,18.791v-.261a2.723,2.723,0,0,0,.213-.193,3.881,3.881,0,0,0,.982-2.163,1.908,1.908,0,0,0,1.232-.732,2.735,2.735,0,0,0,.105-2.47.284.284,0,0,0-.114-.148l-.156-.105a3.849,3.849,0,0,0-.92-2.592A4.465,4.465,0,0,0,7.5,8.826a4.484,4.484,0,0,0-3.489,1.289,3.849,3.849,0,0,0-.92,2.592l-.156.105a.284.284,0,0,0-.114.148,2.733,2.733,0,0,0,.105,2.47,1.913,1.913,0,0,0,1.232.741,3.884,3.884,0,0,0,.985,2.166,2.77,2.77,0,0,0,.213.193v.261C4.268,19-.073,20.02,0,22.916a.284.284,0,0,0,.284.284h14.43A.284.284,0,0,0,15,22.916C15.073,20.02,10.732,19,9.645,18.791ZM3.987,15.537a1.232,1.232,0,0,1-.6-.44l.014,0a2.181,2.181,0,0,1-.057-1.871l.207-.139a.284.284,0,0,0,.125-.264,3.356,3.356,0,0,1,.772-2.336A3.913,3.913,0,0,1,7.5,9.394a3.916,3.916,0,0,1,3.063,1.1,3.356,3.356,0,0,1,.772,2.336.284.284,0,0,0,.125.264l.207.139a2.153,2.153,0,0,1-.057,1.871,1.238,1.238,0,0,1-.6.44,1.891,1.891,0,0,0,.463-1.419,1.329,1.329,0,0,0-.457-.795c-.122-2.839-2.112-3.157-2.97-3.157a3.579,3.579,0,0,0-.542.04,3.574,3.574,0,0,0-.542-.04c-.852,0-2.839.312-2.97,3.157a1.329,1.329,0,0,0-.463.792A1.888,1.888,0,0,0,3.987,15.537Zm6.459-2.328a5.848,5.848,0,0,1-3.393-.852.284.284,0,0,0-.369.037,3.31,3.31,0,0,1-2.1.784c.153-2.007,1.368-2.444,2.39-2.444a2.744,2.744,0,0,1,.485.04.283.283,0,0,0,.114,0,2.758,2.758,0,0,1,.485-.04c1.013,0,2.234.449,2.376,2.473ZM4.679,15.591l.011,0a.284.284,0,0,0-.071-.19,1.6,1.6,0,0,1-.52-1.187.752.752,0,0,1,.258-.48,4.249,4.249,0,0,0,2.555-.806,6.4,6.4,0,0,0,3.151.852,3.744,3.744,0,0,0,.585-.031.749.749,0,0,1,.256.466,1.609,1.609,0,0,1-.52,1.187.284.284,0,0,0-.071.19v.148l-1.652.886a.818.818,0,1,0,.256.593q0-.038,0-.077l1.3-.7a3.123,3.123,0,0,1-.761,1.5,2.529,2.529,0,0,1-1.882.7H7.436a2.535,2.535,0,0,1-1.879-.7A3.619,3.619,0,0,1,4.679,15.591Zm3.671,1.63a.253.253,0,1,1-.253-.253A.253.253,0,0,1,8.35,17.221ZM7.214,22.615H.577c.224-2.132,3.691-3.023,4.775-3.253v.508c0,.644.784,1.136,1.862,1.218ZM5.92,19.869V18.89a3.432,3.432,0,0,0,1.507.318h.142a3.432,3.432,0,0,0,1.507-.318v.979c0,.27-.616.659-1.578.659S5.92,20.139,5.92,19.869Zm1.862,2.754V21.085c1.079-.074,1.862-.568,1.862-1.218v-.5c1.093.227,4.542,1.119,4.775,3.253Z" transform="translate(0 -8.826)"/>
    </g>
  </g>
</svg>
