<svg xmlns="http://www.w3.org/2000/svg" width="14" height="13.792" viewBox="0 0 14 13.792">
  <g id="favorites" transform="translate(0 -3.809)">
    <g id="Group_534" data-name="Group 534" transform="translate(0.809 3.81)">
      <g id="Group_533" data-name="Group 533" transform="translate(0 0)">
        <path id="Path_2603" data-name="Path 2603" d="M41.678,9.221a.923.923,0,0,0-.512-1.575L38.1,7.2a.185.185,0,0,1-.139-.1l-1.37-2.776a.923.923,0,0,0-1.656,0L33.568,7.1a.185.185,0,0,1-.139.1l-3.063.445a.923.923,0,0,0-.512,1.575l2.217,2.161a.185.185,0,0,1,.053.163L31.6,14.6a.923.923,0,0,0,1.34.973l2.74-1.44a.185.185,0,0,1,.172,0l2.74,1.44a.923.923,0,0,0,1.34-.973l-.523-3.051a.185.185,0,0,1,.053-.163Zm-3,2.449.523,3.051a.185.185,0,0,1-.268.195l-2.74-1.44a.923.923,0,0,0-.859,0l-2.74,1.44a.185.185,0,0,1-.268-.195l.523-3.051a.923.923,0,0,0-.266-.817L30.37,8.693a.185.185,0,0,1,.1-.315l3.063-.445a.923.923,0,0,0,.7-.505L35.6,4.652a.185.185,0,0,1,.331,0h0L37.3,7.427a.923.923,0,0,0,.7.505l3.063.445a.185.185,0,0,1,.1.315l-2.217,2.161A.923.923,0,0,0,38.68,11.67Z" transform="translate(-29.575 -3.81)"/>
      </g>
    </g>
    <g id="Group_536" data-name="Group 536" transform="translate(10.336 4.254)">
      <g id="Group_535" data-name="Group 535" transform="translate(0 0)">
        <path id="Path_2604" data-name="Path 2604" d="M378.979,20.116a.369.369,0,0,0-.516.082l-.392.54a.369.369,0,1,0,.6.434l.392-.54A.369.369,0,0,0,378.979,20.116Z" transform="translate(-378.001 -20.045)"/>
      </g>
    </g>
    <g id="Group_538" data-name="Group 538" transform="translate(2.532 4.252)">
      <g id="Group_537" data-name="Group 537">
        <path id="Path_2605" data-name="Path 2605" d="M93.65,20.658l-.392-.54a.369.369,0,1,0-.6.434l.392.54a.369.369,0,1,0,.6-.434Z" transform="translate(-92.59 -19.966)"/>
      </g>
    </g>
    <g id="Group_540" data-name="Group 540" transform="translate(0 11.84)">
      <g id="Group_539" data-name="Group 539" transform="translate(0)">
        <path id="Path_2606" data-name="Path 2606" d="M1.355,297.749a.369.369,0,0,0-.465-.237l-.634.206a.369.369,0,1,0,.228.7l.634-.206A.369.369,0,0,0,1.355,297.749Z" transform="translate(0 -297.493)"/>
      </g>
    </g>
    <g id="Group_542" data-name="Group 542" transform="translate(6.631 16.196)">
      <g id="Group_541" data-name="Group 541">
        <path id="Path_2607" data-name="Path 2607" d="M242.868,456.786a.369.369,0,0,0-.369.369v.667a.369.369,0,1,0,.739,0v-.667A.369.369,0,0,0,242.868,456.786Z" transform="translate(-242.499 -456.786)"/>
      </g>
    </g>
    <g id="Group_544" data-name="Group 544" transform="translate(12.627 11.841)">
      <g id="Group_543" data-name="Group 543">
        <path id="Path_2608" data-name="Path 2608" d="M462.9,297.737l-.634-.206a.369.369,0,0,0-.228.7l.634.206a.369.369,0,1,0,.228-.7Z" transform="translate(-461.783 -297.513)"/>
      </g>
    </g>
  </g>
</svg>
