<svg xmlns="http://www.w3.org/2000/svg" width="21.374" height="21.374" viewBox="0 0 21.374 21.374">
  <g id="gear" transform="translate(0 0)">
    <path id="Path_2615" data-name="Path 2615" d="M138.718,133.609a5.109,5.109,0,1,0,5.109,5.109A5.115,5.115,0,0,0,138.718,133.609Zm0,8.941a3.832,3.832,0,1,1,3.832-3.832A3.836,3.836,0,0,1,138.718,142.55Zm0,0" transform="translate(-128.031 -128.031)" fill="#fff"/>
    <path id="Path_2616" data-name="Path 2616" d="M20.871,8.253,19.228,7.9A8.94,8.94,0,0,0,18.7,6.621l.909-1.415a.639.639,0,0,0-.086-.8L16.964,1.85a.639.639,0,0,0-.8-.086l-1.415.909a8.941,8.941,0,0,0-1.275-.529L13.121.5A.639.639,0,0,0,12.5,0H8.877a.639.639,0,0,0-.624.5L7.9,2.146a8.94,8.94,0,0,0-1.275.529L5.207,1.765a.639.639,0,0,0-.8.086L1.85,4.41a.639.639,0,0,0-.086.8l.909,1.415A8.941,8.941,0,0,0,2.146,7.9L.5,8.253a.639.639,0,0,0-.5.624V12.5a.639.639,0,0,0,.5.624l1.643.357a8.94,8.94,0,0,0,.529,1.275l-.909,1.415a.639.639,0,0,0,.086.8L4.41,19.524a.639.639,0,0,0,.8.086L6.621,18.7a8.94,8.94,0,0,0,1.275.529l.357,1.643a.639.639,0,0,0,.624.5H12.5a.639.639,0,0,0,.624-.5l.357-1.643a8.94,8.94,0,0,0,1.275-.529l1.415.909a.639.639,0,0,0,.8-.086l2.559-2.559a.639.639,0,0,0,.086-.8L18.7,14.753a8.941,8.941,0,0,0,.529-1.275l1.643-.357a.639.639,0,0,0,.5-.624V8.877A.639.639,0,0,0,20.871,8.253ZM20.1,11.982l-1.506.327a.639.639,0,0,0-.48.453,7.663,7.663,0,0,1-.708,1.707.638.638,0,0,0,.019.659l.834,1.3-1.831,1.831-1.3-.834a.638.638,0,0,0-.659-.019,7.668,7.668,0,0,1-1.707.708.639.639,0,0,0-.453.48L11.982,20.1H9.392L9.065,18.59a.639.639,0,0,0-.453-.48A7.663,7.663,0,0,1,6.906,17.4a.639.639,0,0,0-.659.019l-1.3.834L3.118,16.425l.834-1.3a.638.638,0,0,0,.019-.659,7.671,7.671,0,0,1-.708-1.707.639.639,0,0,0-.479-.453l-1.506-.327V9.392l1.506-.327a.639.639,0,0,0,.48-.453,7.663,7.663,0,0,1,.708-1.707.638.638,0,0,0-.019-.659l-.834-1.3L4.949,3.118l1.3.834a.638.638,0,0,0,.659.019,7.668,7.668,0,0,1,1.707-.708.639.639,0,0,0,.453-.48l.327-1.506h2.59l.327,1.506a.639.639,0,0,0,.453.48,7.663,7.663,0,0,1,1.707.708.639.639,0,0,0,.659-.019l1.3-.834,1.831,1.831-.834,1.3a.638.638,0,0,0-.019.659,7.664,7.664,0,0,1,.708,1.707.639.639,0,0,0,.479.453l1.506.327Zm0,0" transform="translate(0 0)" fill="#fff"/>
  </g>
</svg>
