<svg xmlns="http://www.w3.org/2000/svg" width="15.54" height="15.54" viewBox="0 0 15.54 15.54">
  <g id="gps-fixed" transform="translate(0 0)">
    <path id="Path_2512" data-name="Path 2512" d="M7.77,4.945A2.825,2.825,0,1,0,10.6,7.77,2.834,2.834,0,0,0,7.77,4.945Zm6.287,2.119a6.309,6.309,0,0,0-5.58-5.58V0H7.064V1.483a6.181,6.181,0,0,0-5.58,5.58H0V8.476H1.483a6.309,6.309,0,0,0,5.58,5.58V15.54H8.476V14.057a6.309,6.309,0,0,0,5.58-5.58H15.54V7.064ZM7.77,12.715A4.945,4.945,0,1,1,12.715,7.77,4.914,4.914,0,0,1,7.77,12.715Z"/>
  </g>
</svg>
