<svg id="gps-fixed-indicator" xmlns="http://www.w3.org/2000/svg" width="21.54" height="21.54" viewBox="0 0 21.54 21.54">
  <g id="gps-fixed">
    <path id="Path_2512" data-name="Path 2512" d="M10.77,6.854a3.916,3.916,0,1,0,3.916,3.916A3.928,3.928,0,0,0,10.77,6.854Zm8.714,2.937a8.745,8.745,0,0,0-7.735-7.735V0H9.791V2.056A8.567,8.567,0,0,0,2.056,9.791H0v1.958H2.056a8.745,8.745,0,0,0,7.735,7.735V21.54h1.958V19.484a8.745,8.745,0,0,0,7.735-7.735H21.54V9.791ZM10.77,17.624a6.854,6.854,0,1,1,6.854-6.854A6.812,6.812,0,0,1,10.77,17.624Z" fill="#fff"/>
  </g>
</svg>
