<svg xmlns="http://www.w3.org/2000/svg" width="16" height="16.475" viewBox="0 0 16 16.475">
  <path id="List_View" data-name="List View" d="M15.543,13.349H5.453a.445.445,0,0,1,0-.89H15.543a.445.445,0,1,1,0,.89Zm0-3.115H5.453a.445.445,0,1,1,0-.89H15.543a.445.445,0,1,1,0,.89Zm0-3.118H5.453a.445.445,0,0,1,0-.89H15.543a.445.445,0,0,1,0,.89Zm0-3.114H5.453a.445.445,0,1,1,0-.89H15.543a.445.445,0,1,1,0,.89Zm0-3.118H5.453a.445.445,0,0,1,0-.89H15.543a.445.445,0,1,1,0,.89ZM3.1,16.468H.878a.891.891,0,0,1-.89-.89V13.351a.891.891,0,0,1,.89-.89H3.1a.891.891,0,0,1,.89.89v2.226A.891.891,0,0,1,3.1,16.468Zm0-3.116H.878v2.226H3.1Zm0-3.116H.878a.891.891,0,0,1-.89-.89V7.119a.891.891,0,0,1,.89-.89H3.1a.891.891,0,0,1,.89.89V9.345A.891.891,0,0,1,3.1,10.235Zm0-3.116H.878V9.345H3.1ZM3.1,4H.878a.891.891,0,0,1-.89-.89V.886A.891.891,0,0,1,.878,0H3.1a.891.891,0,0,1,.89.89V3.112A.891.891,0,0,1,3.1,4ZM3.1.886H.878V3.112H3.1ZM5.453,15.576H15.543a.445.445,0,1,1,0,.89H5.453a.445.445,0,0,1,0-.89Z" transform="translate(0.012 0.007)" fill-rule="evenodd"/>
</svg>
