<svg xmlns="http://www.w3.org/2000/svg" width="14" height="12.25" viewBox="0 0 14 12.25">
  <g id="login-square-arrow-button-outline" transform="translate(0 -38.25)">
    <g id="_x36__30_" transform="translate(0 38.25)">
      <g id="Group_430" data-name="Group 430" transform="translate(0 0)">
        <path id="Path_2525" data-name="Path 2525" d="M7.588,47.106a.437.437,0,1,0,.619.619l3.018-3.019a.5.5,0,0,0,0-.662L8.206,41.025a.437.437,0,0,0-.619.619l2.294,2.294H.438a.438.438,0,0,0,0,.875H9.881ZM12.25,38.25H3.5A1.75,1.75,0,0,0,1.75,40v1.75h.875V40a.875.875,0,0,1,.875-.875h8.75a.875.875,0,0,1,.875.875v8.75a.875.875,0,0,1-.875.875H3.5a.875.875,0,0,1-.875-.875V47H1.75v1.75A1.75,1.75,0,0,0,3.5,50.5h8.75A1.75,1.75,0,0,0,14,48.75V40A1.75,1.75,0,0,0,12.25,38.25Z" transform="translate(0 -38.25)"/>
      </g>
    </g>
  </g>
</svg>
