<svg xmlns="http://www.w3.org/2000/svg" width="16" height="18.118" viewBox="0 0 16 18.118">
  <g id="medal" transform="translate(-29.928 0)">
    <g id="Group_473" data-name="Group 473" transform="translate(35.079 3.635)">
      <g id="Group_472" data-name="Group 472" transform="translate(0)">
        <path id="Path_2584" data-name="Path 2584" d="M181.191,104.784a.354.354,0,0,0-.286-.241l-1.539-.223-.689-1.395a.354.354,0,0,0-.317-.2h0a.354.354,0,0,0-.317.2l-.688,1.4-1.539.224a.354.354,0,0,0-.2.6l1.114,1.086-.263,1.533a.354.354,0,0,0,.514.373l1.377-.724,1.377.723a.354.354,0,0,0,.513-.373l-.263-1.533,1.114-1.086A.354.354,0,0,0,181.191,104.784Zm-1.83,1.072a.354.354,0,0,0-.1.313l.173,1.01-.907-.477a.354.354,0,0,0-.329,0l-.907.477.173-1.01a.354.354,0,0,0-.1-.313l-.734-.715,1.014-.148a.354.354,0,0,0,.266-.194l.453-.919.454.919a.354.354,0,0,0,.266.194l1.014.147Z" transform="translate(-175.512 -102.728)"/>
      </g>
    </g>
    <g id="Group_475" data-name="Group 475" transform="translate(29.928 0)">
      <g id="Group_474" data-name="Group 474">
        <path id="Path_2585" data-name="Path 2585" d="M45.881,15.548,42.956,10.46a6.441,6.441,0,1,0-10.056,0l-2.925,5.088a.354.354,0,0,0,.354.527l2.283-.307.876,2.13a.354.354,0,0,0,.3.218h.024a.354.354,0,0,0,.306-.177l2.953-5.114v0a6.457,6.457,0,0,0,1.7,0v0l2.953,5.114a.354.354,0,0,0,.306.177h.024a.354.354,0,0,0,.3-.218l.876-2.13,2.283.307a.354.354,0,0,0,.354-.527ZM33.868,16.964l-.638-1.551.572-.934a.354.354,0,1,0-.6-.37l-.578.944-1.675.225L33.4,11.014a6.44,6.44,0,0,0,2.942,1.669Zm4.059-4.791A5.733,5.733,0,1,1,43.66,6.441,5.739,5.739,0,0,1,37.928,12.173Zm5.307,2.88-.578-.944a.354.354,0,0,0-.6.37l.572.934-.638,1.551-2.472-4.281a6.44,6.44,0,0,0,2.942-1.669l2.452,4.264Z" transform="translate(-29.928 0)"/>
      </g>
    </g>
    <g id="Group_477" data-name="Group 477" transform="translate(35.494 1.84)">
      <g id="Group_476" data-name="Group 476">
        <path id="Path_2586" data-name="Path 2586" d="M189.661,52a4.6,4.6,0,0,0-2.253.589.354.354,0,0,0,.347.617,3.894,3.894,0,0,1,5.421,5.07.354.354,0,1,0,.639.3,4.56,4.56,0,0,0,.447-1.98A4.606,4.606,0,0,0,189.661,52Z" transform="translate(-187.227 -52)"/>
      </g>
    </g>
    <g id="Group_479" data-name="Group 479" transform="translate(40.612 9.045)">
      <g id="Group_478" data-name="Group 478">
        <path id="Path_2587" data-name="Path 2587" d="M332.452,255.7a.354.354,0,0,0-.5.008l-.008.008a.354.354,0,1,0,.506.494l.009-.01A.354.354,0,0,0,332.452,255.7Z" transform="translate(-331.843 -255.598)"/>
      </g>
    </g>
    <g id="Group_481" data-name="Group 481" transform="translate(33.327 4.328)">
      <g id="Group_480" data-name="Group 480" transform="translate(0)">
        <path id="Path_2588" data-name="Path 2588" d="M132.953,127.969a.354.354,0,0,0-.481-.139,3.894,3.894,0,0,1-5.42-5.024.354.354,0,1,0-.644-.293,4.6,4.6,0,0,0,6.406,5.937A.354.354,0,0,0,132.953,127.969Z" transform="translate(-125.996 -122.306)"/>
      </g>
    </g>
    <g id="Group_483" data-name="Group 483" transform="translate(34.459 3.193)">
      <g id="Group_482" data-name="Group 482">
        <path id="Path_2589" data-name="Path 2589" d="M158.587,90.311a.354.354,0,0,0-.5.018l-.008.008a.354.354,0,1,0,.519.481l.006-.007A.354.354,0,0,0,158.587,90.311Z" transform="translate(-157.984 -90.216)"/>
      </g>
    </g>
  </g>
</svg>
