<svg xmlns="http://www.w3.org/2000/svg" width="15" height="16.698" viewBox="0 0 15 16.698">
  <g id="order" transform="translate(-24.004)">
    <g id="Group_437" data-name="Group 437" transform="translate(25.136 9.339)">
      <g id="Group_436" data-name="Group 436">
        <path id="Path_2551" data-name="Path 2551" d="M56.287,264a.283.283,0,0,0-.283.283v1.132a.283.283,0,1,0,.566,0v-1.132A.283.283,0,0,0,56.287,264Z" transform="translate(-56.004 -264.002)"/>
      </g>
    </g>
    <g id="Group_439" data-name="Group 439" transform="translate(26.268 9.905)">
      <g id="Group_438" data-name="Group 438" transform="translate(0)">
        <path id="Path_2552" data-name="Path 2552" d="M88.287,280a.283.283,0,0,0-.283.283v1.132a.283.283,0,1,0,.566,0v-1.132A.283.283,0,0,0,88.287,280Z" transform="translate(-88.004 -280.002)"/>
      </g>
    </g>
    <g id="Group_441" data-name="Group 441" transform="translate(33.344 11.037)">
      <g id="Group_440" data-name="Group 440">
        <path id="Path_2553" data-name="Path 2553" d="M291.546,312.389a.283.283,0,0,0-.317.469,1.7,1.7,0,1,1-.949-.289.283.283,0,0,0,0-.566,2.264,2.264,0,1,0,1.266.387Z" transform="translate(-288.016 -312.002)"/>
      </g>
    </g>
    <g id="Group_443" data-name="Group 443" transform="translate(24.004 0)">
      <g id="Group_442" data-name="Group 442" transform="translate(0 0)">
        <path id="Path_2554" data-name="Path 2554" d="M38.87,12.361a3.4,3.4,0,0,0-1.848-2.145V3.962a.283.283,0,0,0-.139-.244L30.657.04a.283.283,0,0,0-.288,0L24.143,3.719c-.006,0-.01.008-.016.012l-.017.013a.279.279,0,0,0-.063.069s0,0,0,.005v0a.283.283,0,0,0-.032.093.251.251,0,0,1,0,.025.247.247,0,0,0,0,.025V11.32a.283.283,0,0,0,.139.244l6.226,3.679.023.01.024.01a.252.252,0,0,0,.195,0l.024-.01c.007,0,.015-.005.023-.01l1.69-1a3.395,3.395,0,0,0,6.523-1.883ZM30.513.612l1.472.87L29.8,2.771a.283.283,0,0,0,.288.488l2.451-1.447,1.472.87-5.67,3.349-1.472-.87,2.371-1.4a.283.283,0,1,0-.288-.488l-2.639,1.56-1.472-.87ZM28.06,6.521v1.89L26.6,7.547V5.657Zm4.263,5.906a3.448,3.448,0,0,0-.093,1.229L30.8,14.5v-.919a.283.283,0,1,0-.566,0V14.5l-5.66-3.345v-6.7l1.462.864V7.708a.283.283,0,0,0,.139.244L28.2,9.15a.283.283,0,0,0,.427-.244V6.855l1.6.948v4.649a.283.283,0,0,0,.566,0V7.8l5.129-3.031a.283.283,0,0,0-.288-.487L30.513,7.313,28.9,6.359l5.67-3.35,1.887,1.115v5.895A3.382,3.382,0,0,0,32.323,12.427Zm3.284,3.7a2.83,2.83,0,1,1,2.83-2.83A2.83,2.83,0,0,1,35.607,16.132Z" transform="translate(-24.004 0)"/>
      </g>
    </g>
    <g id="Group_445" data-name="Group 445" transform="translate(34.479 12.456)">
      <g id="Group_444" data-name="Group 444" transform="translate(0)">
        <path id="Path_2555" data-name="Path 2555" d="M322.272,352.179a.283.283,0,0,0-.393,0l-1.073,1.073-.224-.224a.283.283,0,0,0-.4.4l.424.425a.283.283,0,0,0,.4,0l1.273-1.274A.283.283,0,0,0,322.272,352.179Z" transform="translate(-320.102 -352.1)"/>
      </g>
    </g>
  </g>
</svg>
