<svg xmlns="http://www.w3.org/2000/svg" width="15" height="17.612" viewBox="0 0 15 17.612">
  <g id="refund" transform="translate(-37.974)">
    <path id="Path_2543" data-name="Path 2543" d="M154.769,165.455h.476a.172.172,0,1,1,0,.345h-.755a.258.258,0,0,0,0,.516h.3v.12a.258.258,0,0,0,.516,0v-.123a.688.688,0,0,0-.061-1.374h-.476a.172.172,0,1,1,0-.345h.755a.258.258,0,1,0,0-.516h-.218v-.12a.258.258,0,0,0-.516,0v.12h-.021a.688.688,0,1,0,0,1.377Z" transform="translate(-112.113 -158.069)"/>
    <path id="Path_2544" data-name="Path 2544" d="M119.217,130.2a1.979,1.979,0,0,0,1.58-.861,3.481,3.481,0,0,0,0-3.969,1.881,1.881,0,0,0-3.161,0,3.481,3.481,0,0,0,0,3.969A1.979,1.979,0,0,0,119.217,130.2Zm-1.685-2.845c0-1.284.756-2.329,1.685-2.329s1.685,1.045,1.685,2.329-.756,2.329-1.685,2.329S117.532,128.637,117.532,127.353Z" transform="translate(-76.323 -120.225)"/>
    <path id="Path_2545" data-name="Path 2545" d="M49.29,5.843h-.323V5.189a.379.379,0,0,0-.6-.308l-.552.4V3.185l2.809.748a2.319,2.319,0,0,0,1.459,2.506.258.258,0,0,0,.507.062l.345-1.294a1.153,1.153,0,0,0-.817-1.41l-1.126-.3h0l-3.177-.846v-1.5A1.154,1.154,0,0,0,46.662,0H39.126a1.154,1.154,0,0,0-1.152,1.152V3.56a.258.258,0,1,0,.516,0v-1A2.322,2.322,0,0,0,40.535.516h4.719A2.322,2.322,0,0,0,47.3,2.561V5.65L45.88,6.672a.584.584,0,0,0,0,.947L47.3,8.641V11.7a2.322,2.322,0,0,0-2.045,2.045H40.535A2.322,2.322,0,0,0,38.49,11.7v-7.1a.258.258,0,0,0-.516,0V13.1a1.152,1.152,0,0,0,1.152,1.153h1.215a1.143,1.143,0,0,0,.124.841,1.157,1.157,0,0,0,.181.236l.02.02.01.01a1.145,1.145,0,0,0,.489.27l1.126.3.009,0,6.148,1.638q.056.015.112.024a1.153,1.153,0,0,0,1.3-.841l.3-1.126v-.006l.449-1.686a.258.258,0,0,0-.5-.133l-.388,1.456a2.319,2.319,0,0,0-2.5,1.45L42.66,15.5a2.317,2.317,0,0,0-.155-1.241h4.158A1.152,1.152,0,0,0,47.815,13.1V9.012l.552.4a.379.379,0,0,0,.6-.308V8.447h.323a1.439,1.439,0,0,1,1.161.639,2.5,2.5,0,0,1,.46,1.452,2.149,2.149,0,0,1-2.249,2.147.271.271,0,0,0-.065.537,3.588,3.588,0,0,0,2.987-.758,3.732,3.732,0,0,0,1.361-2.9A3.693,3.693,0,0,0,49.29,5.843Zm1.836-1.776.858.229a.636.636,0,0,1,.451.779l-.229.859A1.805,1.805,0,0,1,51.127,4.067ZM38.49,2.041V1.152a.637.637,0,0,1,.636-.636h.889A1.806,1.806,0,0,1,38.49,2.041Zm8.809,0A1.806,1.806,0,0,1,45.774.516h.9a.637.637,0,0,1,.62.636Zm-8.172,11.7a.636.636,0,0,1-.636-.636v-.888a1.806,1.806,0,0,1,1.525,1.525h-.889Zm3.031,1.623-.858-.229a.636.636,0,0,1-.451-.778l.027-.1H41.93A1.8,1.8,0,0,1,42.158,15.363ZM48.476,16a1.787,1.787,0,0,1,1.112-.231l-.229.859a.631.631,0,0,1-.3.387.632.632,0,0,1-.483.064l-.859-.229A1.788,1.788,0,0,1,48.476,16ZM47.3,13.1a.636.636,0,0,1-.636.636h-.888A1.806,1.806,0,0,1,47.3,12.216Zm3.958-1.04a3.141,3.141,0,0,1-.683.428l.028-.026a2.642,2.642,0,0,0,.826-1.929A2.425,2.425,0,0,0,49.29,7.931h-.356a.483.483,0,0,0-.483.483v.421L47.707,8.3h0L46.181,7.2a.068.068,0,0,1,0-.11l1.523-1.1.007-.005.74-.533v.421a.483.483,0,0,0,.483.483h.356a3.177,3.177,0,0,1,3.139,3.207A3.219,3.219,0,0,1,51.257,12.064Z" transform="translate(0)"/>
  </g>
</svg>
