<svg xmlns="http://www.w3.org/2000/svg" width="16" height="11.2" viewBox="0 0 16 11.2">
  <g id="card" transform="translate(0 -72)">
    <g id="Group_485" data-name="Group 485" transform="translate(0 72)">
      <g id="Group_484" data-name="Group 484" transform="translate(0 0)">
        <path id="Path_2590" data-name="Path 2590" d="M15.733,72H.267A.267.267,0,0,0,0,72.267V82.933a.267.267,0,0,0,.267.267H15.733A.267.267,0,0,0,16,82.933V72.267A.267.267,0,0,0,15.733,72Zm-.267,10.667H.533V72.533H15.467Z" transform="translate(0 -72)"/>
      </g>
    </g>
    <g id="Group_487" data-name="Group 487" transform="translate(5.333 73.067)">
      <g id="Group_486" data-name="Group 486" transform="translate(0 0)">
        <path id="Path_2591" data-name="Path 2591" d="M169.333,104h-9.067a.267.267,0,0,0-.267.267V112.8a.267.267,0,0,0,.267.267h9.067a.267.267,0,0,0,.267-.267v-8.533A.267.267,0,0,0,169.333,104Zm-.267,8.533h-8.533v-8h8.533Z" transform="translate(-160 -104)"/>
      </g>
    </g>
    <g id="Group_489" data-name="Group 489" transform="translate(8.267 76)">
      <g id="Group_488" data-name="Group 488" transform="translate(0 0)">
        <path id="Path_2592" data-name="Path 2592" d="M248.8,193.333a.267.267,0,1,1,.267-.267h.533a.8.8,0,0,0-.533-.751V192h-.533v.316a.8.8,0,0,0,.267,1.551.267.267,0,1,1-.267.267H248a.8.8,0,0,0,.533.751v.316h.533v-.316a.8.8,0,0,0-.267-1.551Z" transform="translate(-248 -192)"/>
      </g>
    </g>
    <g id="Group_491" data-name="Group 491" transform="translate(10.4 76)">
      <g id="Group_490" data-name="Group 490" transform="translate(0 0)">
        <path id="Path_2593" data-name="Path 2593" d="M312.8,193.333a.267.267,0,1,1,.267-.267h.533a.8.8,0,0,0-.533-.751V192h-.533v.316a.8.8,0,0,0,.267,1.551.267.267,0,1,1-.267.267H312a.8.8,0,0,0,.533.751v.316h.533v-.316a.8.8,0,0,0-.267-1.551Z" transform="translate(-312 -192)"/>
      </g>
    </g>
    <g id="Group_493" data-name="Group 493" transform="translate(1.067 74.93)">
      <g id="Group_492" data-name="Group 492" transform="translate(0 0)">
        <path id="Path_2594" data-name="Path 2594" d="M35.467,161.245h-.094a.931.931,0,0,0-1.506-1.051.93.93,0,0,0-1.506,1.051h-.094a.267.267,0,0,0-.267.267v3.2a.267.267,0,0,0,.267.267h3.2a.267.267,0,0,0,.267-.267v-3.2A.267.267,0,0,0,35.467,161.245Zm-2.4,3.2h-.533v-2.667h.533Zm-.267-3.6a.4.4,0,0,1,.8,0v.4h-.4A.4.4,0,0,1,32.8,160.845Zm1.333,3.6H33.6v-2.667h.533Zm0-3.2v-.4a.4.4,0,1,1,.4.4Zm1.067,3.2h-.533v-2.667H35.2Z" transform="translate(-32 -159.908)"/>
      </g>
    </g>
    <g id="Group_495" data-name="Group 495" transform="translate(6.4 74.133)">
      <g id="Group_494" data-name="Group 494" transform="translate(0 0)">
        <path id="Path_2595" data-name="Path 2595" d="M199.166,139.228a1.02,1.02,0,0,0-.244-.18h0a1.628,1.628,0,0,0-1.733-2.753l-.243.243a1.021,1.021,0,0,0-1.623-.243l-.243.243a1.021,1.021,0,0,0-1.623-.243l-1.158,1.158a1.02,1.02,0,0,0,.243,1.623l-.243.243a1.021,1.021,0,0,0,.243,1.623l-.243.243a1.021,1.021,0,0,0,1.444,1.444l.084-.084a1.017,1.017,0,0,0,1.516.084l.243-.243a1.021,1.021,0,0,0,1.623.243l1.958-1.958A1.021,1.021,0,0,0,199.166,139.228Zm-.377,1.066h0l-1.958,1.958a.487.487,0,0,1-.832-.339c0-.006,0-.034,0-.041a.267.267,0,0,0-.157-.259.269.269,0,0,0-.11-.023.267.267,0,0,0-.189.078l-.584.584a.485.485,0,0,1-.813-.22.267.267,0,0,0-.446-.12l-.341.341a.488.488,0,0,1-.69-.69l.584-.584a.267.267,0,0,0-.207-.455l-.032,0a.488.488,0,0,1-.345-.833l.584-.584a.267.267,0,0,0-.207-.453l-.032,0a.488.488,0,0,1-.345-.833l1.158-1.158a.487.487,0,0,1,.832.339c0,.006,0,.034,0,.041a.267.267,0,0,0,.455.2l.584-.584a.487.487,0,0,1,.832.339c0,.006,0,.034,0,.041a.267.267,0,0,0,.455.2l.584-.584a.488.488,0,0,1,.69.689l-.074.074a.267.267,0,0,0,.12.447.486.486,0,0,1,.221.814l-.318.317a.267.267,0,0,0,.207.455l.04,0a.488.488,0,0,1,.338.833Z" transform="translate(-191.998 -135.995)"/>
      </g>
    </g>
  </g>
</svg>
