<svg xmlns="http://www.w3.org/2000/svg" width="15" height="15" viewBox="0 0 15 15">
  <g id="settings" transform="translate(0)">
    <g id="Group_422" data-name="Group 422" transform="translate(0 5.063)">
      <g id="Group_421" data-name="Group 421" transform="translate(0)">
        <path id="Path_2556" data-name="Path 2556" d="M9.634,178.541c-.158-.095-.32-.19-.481-.283a4.191,4.191,0,0,0,0-.976c.162-.094.324-.189.481-.283a.632.632,0,0,0,.256-.779h0l-.345-.833a.632.632,0,0,0-.732-.37c-.178.044-.36.091-.541.14a4.194,4.194,0,0,0-.69-.69c.049-.181.1-.363.14-.541a.632.632,0,0,0-.37-.732l-.833-.345a.632.632,0,0,0-.779.256c-.095.157-.19.319-.283.481a4.193,4.193,0,0,0-.976,0c-.094-.163-.189-.324-.283-.481a.632.632,0,0,0-.779-.256l-.833.345a.632.632,0,0,0-.37.732c.044.178.091.36.14.541a4.19,4.19,0,0,0-.69.69c-.182-.049-.363-.1-.541-.14a.632.632,0,0,0-.732.37l-.345.833A.632.632,0,0,0,.3,177c.157.095.319.19.481.283a4.194,4.194,0,0,0,0,.976c-.162.094-.324.189-.481.283a.632.632,0,0,0-.256.779l.345.833a.632.632,0,0,0,.732.37c.178-.044.359-.091.541-.14a4.194,4.194,0,0,0,.69.69c-.049.181-.1.363-.14.541a.632.632,0,0,0,.37.732l.833.345a.622.622,0,0,0,.238.047.632.632,0,0,0,.541-.3c.094-.156.189-.318.283-.481a4.2,4.2,0,0,0,.976,0c.093.161.188.323.283.481a.632.632,0,0,0,.779.256l.833-.345a.632.632,0,0,0,.37-.732c-.044-.177-.091-.359-.14-.541a4.2,4.2,0,0,0,.69-.69c.181.049.363.1.541.14a.632.632,0,0,0,.732-.37l.345-.833A.632.632,0,0,0,9.634,178.541Zm-.7,1.321c-.171-.043-.345-.088-.519-.135a.627.627,0,0,0-.66.22,3.519,3.519,0,0,1-.614.614.627.627,0,0,0-.22.659c.047.174.092.349.135.518l-.765.317c-.091-.152-.182-.307-.271-.462a.627.627,0,0,0-.622-.311,3.524,3.524,0,0,1-.869,0,.627.627,0,0,0-.622.311c-.09.157-.181.312-.271.462l-.765-.317c.043-.171.088-.345.135-.519a.627.627,0,0,0-.22-.66,3.52,3.52,0,0,1-.614-.614.627.627,0,0,0-.659-.22c-.174.047-.348.092-.518.135L.681,179.1c.151-.091.306-.182.462-.271a.627.627,0,0,0,.311-.622,3.524,3.524,0,0,1,0-.869.627.627,0,0,0-.311-.622c-.155-.089-.311-.181-.462-.271L1,175.677c.171.043.345.088.519.135a.627.627,0,0,0,.66-.22,3.521,3.521,0,0,1,.614-.614.627.627,0,0,0,.22-.66c-.047-.173-.092-.347-.135-.518l.765-.317c.09.151.182.306.271.462a.627.627,0,0,0,.622.311,3.518,3.518,0,0,1,.869,0,.627.627,0,0,0,.622-.311c.089-.155.181-.311.271-.462l.765.317c-.043.171-.088.345-.135.519a.627.627,0,0,0,.22.66,3.522,3.522,0,0,1,.614.614.627.627,0,0,0,.659.22c.173-.047.348-.092.518-.135l.317.765c-.151.09-.306.182-.462.271a.627.627,0,0,0-.311.622,3.521,3.521,0,0,1,0,.869.627.627,0,0,0,.311.622c.155.089.31.18.462.271Z" transform="translate(0 -172.801)"/>
      </g>
    </g>
    <g id="Group_424" data-name="Group 424" transform="translate(2.68 7.743)">
      <g id="Group_423" data-name="Group 423">
        <path id="Path_2557" data-name="Path 2557" d="M95.9,265.706h0a2.291,2.291,0,1,0-1.238,2.99A2.291,2.291,0,0,0,95.9,265.706Zm-1.5,2.369a1.617,1.617,0,1,1,.875-2.113A1.607,1.607,0,0,1,94.4,268.075Z" transform="translate(-91.494 -264.293)"/>
      </g>
    </g>
    <g id="Group_426" data-name="Group 426" transform="translate(7.378)">
      <g id="Group_425" data-name="Group 425">
        <path id="Path_2558" data-name="Path 2558" d="M259.016,2.957l-.355-.05a3.126,3.126,0,0,0-.241-.581c.073-.1.146-.192.216-.286a.535.535,0,0,0-.052-.692l-.463-.463a.535.535,0,0,0-.692-.052c-.095.07-.191.142-.287.215a3.124,3.124,0,0,0-.581-.241c-.016-.12-.033-.239-.05-.355A.535.535,0,0,0,255.985,0h-.655a.535.535,0,0,0-.526.453c-.017.116-.034.235-.05.355a3.124,3.124,0,0,0-.581.241c-.1-.073-.192-.145-.286-.215a.535.535,0,0,0-.692.052l-.463.463a.535.535,0,0,0-.052.692c.07.094.142.191.215.286a3.129,3.129,0,0,0-.241.581l-.355.05a.535.535,0,0,0-.453.526v.655a.535.535,0,0,0,.453.526l.355.05a3.127,3.127,0,0,0,.241.581c-.073.1-.146.192-.216.286a.535.535,0,0,0,.052.692l.463.463a.535.535,0,0,0,.692.052c.095-.07.191-.142.286-.215a3.126,3.126,0,0,0,.581.241c.016.12.033.239.05.355a.535.535,0,0,0,.526.453h.655a.535.535,0,0,0,.526-.453c.017-.116.034-.235.05-.355a3.121,3.121,0,0,0,.581-.241c.1.073.192.145.286.216a.535.535,0,0,0,.692-.052l.463-.463a.535.535,0,0,0,.052-.692c-.07-.095-.142-.191-.215-.286a3.127,3.127,0,0,0,.241-.581l.355-.05a.535.535,0,0,0,.453-.526V3.483A.535.535,0,0,0,259.016,2.957Zm-.185,1.09-.32.044a.53.53,0,0,0-.444.385,2.484,2.484,0,0,1-.235.566.531.531,0,0,0,.042.587c.066.086.132.172.2.258l-.334.334-.258-.2a.531.531,0,0,0-.587-.042,2.483,2.483,0,0,1-.566.235.53.53,0,0,0-.385.444c-.014.108-.029.215-.044.32h-.473c-.015-.105-.03-.213-.044-.32a.531.531,0,0,0-.385-.444,2.483,2.483,0,0,1-.566-.235.531.531,0,0,0-.587.042c-.086.066-.172.131-.258.2l-.334-.334c.064-.086.129-.172.2-.258a.531.531,0,0,0,.042-.587,2.484,2.484,0,0,1-.235-.566.531.531,0,0,0-.444-.385l-.32-.044V3.575l.32-.044a.53.53,0,0,0,.444-.385,2.483,2.483,0,0,1,.235-.566.531.531,0,0,0-.042-.587c-.066-.086-.132-.172-.2-.258l.334-.334.258.2a.531.531,0,0,0,.587.042,2.485,2.485,0,0,1,.566-.235.53.53,0,0,0,.385-.444c.014-.108.029-.215.044-.32h.473c.015.105.03.213.044.32a.531.531,0,0,0,.385.444,2.483,2.483,0,0,1,.566.235.531.531,0,0,0,.587-.042c.086-.066.172-.131.258-.2l.334.334c-.064.085-.129.172-.2.258a.531.531,0,0,0-.042.587,2.489,2.489,0,0,1,.235.566.53.53,0,0,0,.444.385l.32.044Z" transform="translate(-251.847)"/>
      </g>
    </g>
    <g id="Group_428" data-name="Group 428" transform="translate(9.829 2.451)">
      <g id="Group_427" data-name="Group 427">
        <path id="Path_2559" data-name="Path 2559" d="M336.882,83.675a1.359,1.359,0,1,0,1.359,1.359A1.361,1.361,0,0,0,336.882,83.675Zm0,2.115a.755.755,0,1,1,.755-.755A.756.756,0,0,1,336.882,85.79Z" transform="translate(-335.523 -83.675)"/>
      </g>
    </g>
  </g>
</svg>
