<svg xmlns="http://www.w3.org/2000/svg" width="23.824" height="23.785" viewBox="0 0 23.824 23.785">
  <g id="worldwide" transform="translate(0.284 0.25)">
    <g id="Group_408" data-name="Group 408">
      <path id="Path_2514" data-name="Path 2514" d="M11.649.05A11.643,11.643,0,0,0,.945,7.11L.8,7.158l.056.169A11.642,11.642,0,1,0,11.649.05Zm9.132,17.513-.6-.6V15.574a.388.388,0,0,0-.039-.173l-1.514-3.023V10.916a.388.388,0,0,0-.173-.323l-1.164-.776a.388.388,0,0,0-.31-.054l-1.426.356L13.163,9.092l-.329-2.308.913-.913h1.96l.66.992a.388.388,0,0,0,.259.167l2.329.388a.385.385,0,0,0,.186-.015l2.145-.715A10.828,10.828,0,0,1,20.782,17.563Zm-1.6-13.688-.631.421-1.759-.352-1.141-.38a.381.381,0,0,0-.217-.009l-1.443.361L13.357,3.7l.469-.938h1.313a.388.388,0,0,0,.173-.041l1.343-.671A10.906,10.906,0,0,1,19.181,3.874ZM7.4,1.693l.931.621a.388.388,0,0,0,.152.06l1.881.314-.184.549-.98.327a.388.388,0,0,0-.21.168L7.871,5.589,6.081,6.663,3.442,7.04a.388.388,0,0,0-.334.384V8.588a.388.388,0,0,0,.114.274l.662.662v.667L2.27,9.115,1.684,7.358A10.929,10.929,0,0,1,7.4,1.693ZM6.29,14.417l-1.754-.351-.652-1.3v-.912L5.33,10.407l.535,1.071a.388.388,0,0,0,.347.215h2.5l1.051,1.752a.388.388,0,0,0,.333.188h1.079L10.9,14.994,9.431,16.463a.388.388,0,0,0-.114.274v.97l-1.4,1.048a.388.388,0,0,0-.155.31v1.4l-.483-.16L6.6,18.6V14.8A.388.388,0,0,0,6.29,14.417ZM5.124,20.383A10.864,10.864,0,0,1,1.253,8.52l.323.967a.388.388,0,0,0,.153.2l1.935,1.29-.441.442a.388.388,0,0,0-.114.274v1.164a.388.388,0,0,0,.041.173l.776,1.552a.388.388,0,0,0,.272.207l1.63.326v3.563a.388.388,0,0,0,.028.144l.776,1.94a.388.388,0,0,0,.238.224l1.164.388a.381.381,0,0,0,.121.02.388.388,0,0,0,.388-.388V19.26l1.4-1.048a.388.388,0,0,0,.155-.31v-1l1.439-1.439a.388.388,0,0,0,.106-.2l.388-1.94a.388.388,0,0,0-.38-.464H10.313L9.262,11.1a.388.388,0,0,0-.333-.188H6.452L5.786,9.579a.388.388,0,0,0-.285-.21.38.38,0,0,0-.336.109l-.5.5V9.364a.388.388,0,0,0-.114-.274l-.662-.662V7.76l2.384-.34a.39.39,0,0,0,.145-.052L8.353,6.2a.388.388,0,0,0,.133-.133L9.576,4.254,10.6,3.911a.384.384,0,0,0,.245-.245L11.238,2.5a.388.388,0,0,0-.3-.5L8.687,1.622l-.395-.263a10.837,10.837,0,0,1,7.464.277l-.709.354H13.586a.388.388,0,0,0-.349.215l-.776,1.552a.388.388,0,0,0,.225.541l1.164.388a.381.381,0,0,0,.217.009l1.443-.361,1.057.352a.285.285,0,0,0,.047.012l1.94.388a.385.385,0,0,0,.291-.057l.883-.589A10.948,10.948,0,0,1,20.9,6l-1.909.636-2.067-.345-.683-1.025a.388.388,0,0,0-.321-.173H13.586a.388.388,0,0,0-.274.114L12.148,6.373a.388.388,0,0,0-.11.329l.388,2.717a.388.388,0,0,0,.233.3l2.717,1.164a.384.384,0,0,0,.247.02l1.386-.347.847.566v1.345a.388.388,0,0,0,.039.173l1.514,3.023v1.461a.388.388,0,0,0,.114.274l.812.812A10.864,10.864,0,0,1,5.124,20.383Z" transform="translate(0 -0.05)" fill="#fff" stroke="#fff" stroke-width="0.5"/>
    </g>
  </g>
</svg>
